<?xml version="1.0" encoding="UTF-8" standalone="no"?>
<!-- Generator: Adobe Illustrator 16.0.0, SVG Export Plug-In . SVG Version: 6.00 Build 0)  -->

<svg
   xmlns:dc="http://purl.org/dc/elements/1.1/"
   xmlns:cc="http://creativecommons.org/ns#"
   xmlns:rdf="http://www.w3.org/1999/02/22-rdf-syntax-ns#"
   xmlns:svg="http://www.w3.org/2000/svg"
   xmlns="http://www.w3.org/2000/svg"
   xmlns:sodipodi="http://sodipodi.sourceforge.net/DTD/sodipodi-0.dtd"
   xmlns:inkscape="http://www.inkscape.org/namespaces/inkscape"
   version="1.1"
   id="Layer_1"
   x="0px"
   y="0px"
   width="124px"
   height="40px"
   viewBox="-7 -2.5 124 40"
   enable-background="new -7 -2.5 124 40"
   xml:space="preserve"
   inkscape:version="0.91 r"
   sodipodi:docname="apiki.svg"><metadata
     id="metadata27"><rdf:RDF><cc:Work
         rdf:about=""><dc:format>image/svg+xml</dc:format><dc:type
           rdf:resource="http://purl.org/dc/dcmitype/StillImage" /></cc:Work></rdf:RDF></metadata><defs
     id="defs25" /><sodipodi:namedview
     pagecolor="#ffffff"
     bordercolor="#666666"
     borderopacity="1"
     objecttolerance="10"
     gridtolerance="10"
     guidetolerance="10"
     inkscape:pageopacity="0"
     inkscape:pageshadow="2"
     inkscape:window-width="1366"
     inkscape:window-height="704"
     id="namedview23"
     showgrid="false"
     inkscape:zoom="3.4919355"
     inkscape:cx="22.193995"
     inkscape:cy="16.56351"
     inkscape:window-x="0"
     inkscape:window-y="27"
     inkscape:window-maximized="1"
     inkscape:current-layer="Layer_1" /><g
     id="g3"
     transform="translate(0.28637413,-0.57274827)"
     style="fill:#ee8622;fill-opacity:1"><path
       d="M 20.268,8.062 C 14.982,4.566 6.124,5.639 0.601,7.692 c -4.676,1.74 -10.658,6.903 -5.363,11.855 -2.961,-3.89 2.053,-6.351 6.397,-7.938 2.986,-1.093 7.553,-1.521 9.897,-1.469 3.214,0.078 6.538,0.681 5.626,2.866 0.934,-0.776 5.32,-3.462 3.11,-4.944 z"
       id="path5"
       inkscape:connector-curvature="0"
       style="fill:#ee8622;fill-opacity:1" /><path
       d="m 14.053,15.19 c -1.305,-0.977 -3.737,-1.429 -7.747,-1.005 -2.461,0.219 -4.856,0.888 -7.382,2.119 -2.481,1.204 -4.313,2.835 -3.558,4.778 0.414,1.146 1.151,2.283 3.086,4.029 0.168,0.125 0.34,0.248 0.514,0.371 -0.045,0.31 -0.013,0.634 0.125,0.968 0.252,0.65 0.774,1.375 1.829,2.394 1.128,0.887 2.299,1.812 3.673,-0.016 3.246,-4.477 4.485,-5.632 5.04,-6.024 -0.84,-0.306 -2.219,-0.462 -3.737,-0.4 -1.071,0.049 -3.624,0.251 -5.251,1.182 -0.97,0.492 -1.548,1.135 -1.672,1.849 -0.512,-0.487 -0.864,-0.936 -1.068,-1.381 -0.283,-0.619 -0.295,-1.254 -0.007,-1.812 0.734,-1.425 3.919,-2.598 6.394,-2.978 5.6,-0.863 6.237,0.869 6.279,0.904 3.691,-3.12 5.005,-3.846 3.482,-4.978 z"
       id="path7"
       inkscape:connector-curvature="0"
       style="fill:#ee8622;fill-opacity:1" /><path
       d="m 63.924,5.111 c -8.291,0 -11.71,6.072 -11.71,11.906 l 0,20.085 4.937,0 0,-10.037 c 0.951,1.326 4.249,2.817 6.773,2.817 6.467,0 11.715,-5.545 11.715,-12.386 0,-6.839 -5.248,-12.385 -11.715,-12.385 z m 0,19.334 c -3.624,0 -6.564,-3.111 -6.564,-6.948 0,-3.836 2.94,-6.949 6.564,-6.949 3.63,0 6.572,3.113 6.572,6.949 0,3.837 -2.942,6.948 -6.572,6.948 z"
       id="path9"
       inkscape:connector-curvature="0"
       style="fill:#ee8622;fill-opacity:1" /><path
       d="m 36.734,5.111 c -6.465,0 -11.71,5.546 -11.71,12.387 0,6.842 5.245,12.385 11.71,12.385 2.528,0 5.829,-1.489 6.778,-2.817 l 0,2.079 4.935,0 0,-12.128 C 48.448,11.184 45.028,5.111 36.734,5.111 Z m 0,19.334 c -3.626,0 -6.568,-3.111 -6.568,-6.948 0,-3.836 2.942,-6.949 6.568,-6.949 3.63,0 6.571,3.113 6.571,6.949 10e-4,3.837 -2.94,6.948 -6.571,6.948 z"
       id="path11"
       inkscape:connector-curvature="0"
       style="fill:#ee8622;fill-opacity:1" /><rect
       x="111.516"
       y="5.7199998"
       width="5.3179998"
       height="23.424999"
       id="rect13"
       style="fill:#ee8622;fill-opacity:1" /><rect
       x="78.734001"
       y="5.7199998"
       width="5.316"
       height="23.424999"
       id="rect15"
       style="fill:#ee8622;fill-opacity:1" /><polygon
       points="100.763,5.72 93.646,16.755 93.646,-2.103 88.328,-2.103 88.328,29.143 93.646,29.143 93.646,18.196 101.244,29.143 108.356,29.143 99.041,17.178 107.038,5.72 "
       id="polygon17"
       style="fill:#ee8622;fill-opacity:1" /><rect
       x="111.516"
       y="-2.1029999"
       width="5.3179998"
       height="5.118"
       id="rect19"
       style="fill:#ee8622;fill-opacity:1" /><rect
       x="78.734001"
       y="-2.1029999"
       width="5.316"
       height="5.118"
       id="rect21"
       style="fill:#ee8622;fill-opacity:1" /></g></svg>