<?xml version="1.0" encoding="UTF-8" standalone="no"?>
<!-- Created with Inkscape (http://www.inkscape.org/) -->

<svg
   xmlns:dc="http://purl.org/dc/elements/1.1/"
   xmlns:cc="http://creativecommons.org/ns#"
   xmlns:rdf="http://www.w3.org/1999/02/22-rdf-syntax-ns#"
   xmlns:svg="http://www.w3.org/2000/svg"
   xmlns="http://www.w3.org/2000/svg"
   xmlns:sodipodi="http://sodipodi.sourceforge.net/DTD/sodipodi-0.dtd"
   xmlns:inkscape="http://www.inkscape.org/namespaces/inkscape"
   id="svg2"
   version="1.1"
   inkscape:version="0.91 r13725"
   xml:space="preserve"
   width="723.89313"
   height="228.8965"
   viewBox="0 0 723.89309 228.8965"
   sodipodi:docname="ARQUIPÉLAGO-LOGO.svg"><metadata
     id="metadata8"><rdf:RDF><cc:Work
         rdf:about=""><dc:format>image/svg+xml</dc:format><dc:type
           rdf:resource="http://purl.org/dc/dcmitype/StillImage" /><dc:title></dc:title></cc:Work></rdf:RDF></metadata><defs
     id="defs6"><clipPath
       clipPathUnits="userSpaceOnUse"
       id="clipPath16"><path
         d="m 0,595.28 841.89,0 L 841.89,0 0,0 0,595.28 Z"
         id="path18"
         inkscape:connector-curvature="0" /></clipPath></defs><sodipodi:namedview
     pagecolor="#ffffff"
     bordercolor="#666666"
     borderopacity="1"
     objecttolerance="10"
     gridtolerance="10"
     guidetolerance="10"
     inkscape:pageopacity="0"
     inkscape:pageshadow="2"
     inkscape:window-width="1366"
     inkscape:window-height="704"
     id="namedview4"
     showgrid="false"
     fit-margin-top="0"
     fit-margin-left="0"
     fit-margin-right="0"
     fit-margin-bottom="0"
     inkscape:zoom="0.44853435"
     inkscape:cx="203.3334"
     inkscape:cy="172.21768"
     inkscape:window-x="0"
     inkscape:window-y="27"
     inkscape:window-maximized="1"
     inkscape:current-layer="g10" /><g
     id="g10"
     inkscape:groupmode="layer"
     inkscape:label="ARQUIPÉLAGO-LOGO"
     transform="matrix(1.25,0,0,-1.25,-151.80725,474.96925)"><g
       id="g20"
       transform="translate(562.3054,361.5586)"><path
         d="M 0,0 3.604,0 C 4.159,0 4.437,-0.454 4.22,-1.009 l -4.854,-8.608 c -0.22,-0.555 -0.848,-1.009 -1.406,-1.009 l -3.601,0 c -0.558,0 -0.835,0.454 -0.616,1.009 l 4.851,8.608 C -1.189,-0.454 -0.555,0 0,0 m 120.36,-92.502 9.224,0 0,68.124 -9.224,0 0,-68.124 z m 11.779,76.564 c 1.926,0 3.427,-0.555 4.5,-1.677 1.077,-1.116 1.613,-2.723 1.613,-4.817 l 0,-72.125 c 0,-4.257 -2.04,-6.388 -6.113,-6.388 l -14.337,0 c -4.071,0 -6.111,2.131 -6.111,6.388 l 0,72.125 c 0,2.094 0.537,3.701 1.61,4.817 1.076,1.122 2.576,1.677 4.501,1.677 l 14.337,0 z M 98.872,-38.557 c -1.003,0 -1.503,0.43 -1.503,1.299 l 0,12.88 -8.55,0 0,-68.124 8.55,0 0,30.455 -3.583,0 c -0.921,0 -1.384,0.469 -1.384,1.408 l 0,5.739 c 0,0.936 0.463,1.406 1.384,1.406 l 11.09,0 c 1,0 1.503,-0.47 1.503,-1.406 l 0,-39.657 c 0,-4.257 -2.122,-6.388 -6.354,-6.388 l -13.862,0 c -4.235,0 -6.348,2.131 -6.348,6.388 l 0,72.125 c 0,2.091 0.555,3.701 1.671,4.817 1.116,1.122 2.677,1.677 4.677,1.677 l 13.862,0 c 2,0 3.561,-0.555 4.677,-1.677 1.116,-1.116 1.677,-2.726 1.677,-4.817 l 0,-14.826 c 0,-0.869 -0.503,-1.299 -1.503,-1.299 l -6.004,0 z m -41.066,-40.267 6.507,0 -0.418,4.547 -2.729,35.071 -3.36,-39.618 z m 15.331,-22.121 -5.567,0 c -0.769,0 -1.226,0.399 -1.366,1.192 l -1.153,12.27 -7.983,0 -1.049,-12.27 c 0,-0.793 -0.457,-1.192 -1.366,-1.192 l -5.354,0 c -0.909,0 -1.363,0.436 -1.363,1.299 l 0,0.435 9.343,82.084 c 0,0.36 0.125,0.649 0.368,0.866 0.247,0.217 0.543,0.323 0.891,0.323 l 5.357,0 c 0.351,0 0.65,-0.106 0.894,-0.323 0.244,-0.217 0.366,-0.506 0.366,-0.866 l 9.348,-82.084 c 0.113,-1.006 -0.091,-1.734 -1.366,-1.734 m -31.903,8.443 c 0.918,0 1.387,-0.47 1.387,-1.409 l 0,-5.735 c 0,-0.863 -0.469,-1.299 -1.405,-1.299 l -23.86,0 c -0.866,0 -1.299,0.436 -1.299,1.299 l 0,82.303 c 0,0.939 0.433,1.405 1.317,1.405 l 5.809,0 c 0.884,0 1.317,-0.466 1.317,-1.405 l 0,-75.159 16.734,0 z m -31.894,0 c 0.936,0 1.406,-0.47 1.406,-1.409 l 0,-5.735 c 0,-0.863 -0.47,-1.299 -1.406,-1.299 l -23.756,0 c -0.936,0 -1.403,0.436 -1.403,1.299 l 0,82.303 c 0,0.939 0.467,1.405 1.403,1.405 l 23.753,0 c 0.939,0 1.409,-0.466 1.409,-1.405 l 0,-5.736 c 0,-0.866 -0.47,-1.299 -1.409,-1.299 l -16.716,0 0,-28.763 12.813,0 c 0.936,0 1.402,-0.469 1.402,-1.387 l 0,-5.665 c 0,-0.921 -0.466,-1.391 -1.402,-1.391 l -12.813,0 0,-30.918 16.719,0 z m -48.595,39.008 9.678,0 0,29.116 -9.678,0 0,-29.116 z m 12.151,37.556 c 1.875,0 3.339,-0.555 4.4,-1.677 1.049,-1.116 1.57,-2.726 1.57,-4.817 l 0,-33.12 c 0,-2.165 -0.469,-3.751 -1.424,-4.763 -0.362,-0.43 -0.902,-0.848 -1.625,-1.244 -0.722,-0.397 -1.713,-0.595 -2.942,-0.595 l -12.13,0 0,-37.492 c 0,-0.863 -0.469,-1.299 -1.408,-1.299 l -5.629,0 c -0.939,0 -1.406,0.436 -1.406,1.299 l 0,82.303 c 0,0.939 0.467,1.405 1.406,1.405 l 19.188,0 z"
         style="fill:#f39200;fill-opacity:1;fill-rule:evenodd;stroke:none"
         id="path22"
         inkscape:connector-curvature="0" /></g><path
       d="m 405.216,337.181 -9.678,0 0,-29.226 9.678,0 0,29.226 z m -40.121,-54.446 6.495,0 -0.418,4.546 -2.726,35.072 -3.351,-39.618 z m 15.298,-22.122 -5.556,0 c -0.768,0 -1.22,0.4 -1.36,1.192 l -1.153,12.27 -7.964,0 -1.043,-12.27 c 0,-0.792 -0.457,-1.192 -1.366,-1.192 l -5.342,0 c -1.25,0 -1.482,0.692 -1.363,1.732 l 9.324,82.087 c 0,0.359 0.122,0.649 0.366,0.865 0.247,0.217 0.543,0.324 0.894,0.324 l 5.342,0 c 0.351,0 0.646,-0.107 0.893,-0.324 0.241,-0.216 0.363,-0.506 0.363,-0.865 l 9.327,-82.087 c 0.113,-1.006 -0.091,-1.732 -1.362,-1.732 m 31.86,0 -5.882,0 c -0.719,0 -1.17,0.363 -1.317,1.083 l -9.516,41.389 0,-41.173 c 0,-0.863 -0.467,-1.299 -1.406,-1.299 l -5.629,0 c -0.936,0 -1.408,0.436 -1.408,1.299 l 0,82.303 c 0,0.939 0.472,1.406 1.408,1.406 l 19.076,0 c 1.875,0 3.354,-0.573 4.458,-1.732 1.079,-1.153 1.622,-2.778 1.622,-4.867 l 0,-32.906 c 0,-4.183 -1.93,-6.349 -5.812,-6.495 l -3.061,0 8.873,-37.276 c 0.232,-0.966 -0.079,-1.732 -1.406,-1.732 m 15.164,7.943 9.681,0 0,68.515 -9.681,0 0,-68.515 z m 12.062,76.958 c 1.875,0 3.354,-0.558 4.437,-1.677 1.082,-1.119 1.622,-2.726 1.622,-4.815 l 0,-72.021 c 0,-2.094 -0.54,-3.683 -1.622,-4.762 -1.083,-1.08 -2.562,-1.626 -4.437,-1.626 l -0.649,0 2.055,-8.568 c 0.253,-1.046 0.039,-2.058 -1.409,-2.058 l -5.732,0 c -0.723,0 -1.159,0.36 -1.302,1.085 l -2.055,9.541 -5.458,0 c -3.97,0 -5.955,2.132 -5.955,6.388 l 0,72.021 c 0,2.089 0.521,3.696 1.57,4.815 1.046,1.119 2.506,1.677 4.385,1.677 l 14.55,0 z m 36.532,0.107 c 0.939,0 1.406,-0.47 1.406,-1.409 l -0.025,-77.211 c 0,-4.256 -1.988,-6.388 -5.958,-6.388 l -14.629,0 c -3.964,0 -5.952,2.132 -5.952,6.388 l 0,77.214 c 0,0.939 0.469,1.406 1.408,1.406 l 5.626,0 c 0.936,0 1.412,-0.467 1.412,-1.406 l 0,-75.159 9.648,0 0.027,75.156 c 0,0.939 0.472,1.409 1.408,1.409 l 5.629,0 z"
       style="fill:#f39200;fill-opacity:1;fill-rule:evenodd;stroke:none"
       id="path24"
       inkscape:connector-curvature="0" /><g
       id="g26"
       transform="translate(496.0107,315.1047)"><path
         d="m 0,0 c 2.427,0 4.397,-1.951 4.397,-4.357 0,-2.412 -1.97,-4.361 -4.397,-4.361 -2.427,0 -4.394,1.949 -4.394,4.361 C -4.394,-1.951 -2.427,0 0,0"
         style="fill:#2071b8;fill-opacity:1;fill-rule:evenodd;stroke:none"
         id="path28"
         inkscape:connector-curvature="0" /></g><g
       id="g30"
       transform="translate(496.0107,299.8468)"><path
         d="m 0,0 c 2.427,0 4.397,-1.951 4.397,-4.36 0,-2.403 -1.97,-4.354 -4.397,-4.354 -2.427,0 -4.394,1.951 -4.394,4.354 C -4.394,-1.951 -2.427,0 0,0"
         style="fill:#2071b8;fill-opacity:1;fill-rule:evenodd;stroke:none"
         id="path32"
         inkscape:connector-curvature="0" /></g><g
       id="g34"
       transform="translate(269.769,228.8654)"><path
         d="m 0,0 c 0.107,-2.079 -1.476,-3.851 -3.543,-3.961 -2.061,-0.106 -3.824,1.491 -3.933,3.574 -0.107,2.082 1.475,3.854 3.543,3.964 C -1.872,3.68 -0.11,2.083 0,0"
         style="fill:#2071b8;fill-opacity:1;fill-rule:evenodd;stroke:none"
         id="path36"
         inkscape:connector-curvature="0" /></g><g
       id="g38"
       transform="translate(256.6882,228.1853)"><path
         d="m 0,0 c 0.107,-2.079 -1.479,-3.857 -3.543,-3.964 -2.061,-0.103 -3.824,1.494 -3.933,3.577 -0.11,2.079 1.478,3.857 3.542,3.961 C -1.872,3.68 -0.11,2.079 0,0"
         style="fill:#2071b8;fill-opacity:1;fill-rule:evenodd;stroke:none"
         id="path40"
         inkscape:connector-curvature="0" /></g><g
       id="g42"
       transform="translate(243.6044,227.5056)"><path
         d="m 0,0 c 0.11,-2.083 -1.476,-3.854 -3.54,-3.964 -2.065,-0.107 -3.824,1.491 -3.934,3.574 -0.11,2.082 1.479,3.857 3.544,3.96 C -1.869,3.68 -0.107,2.079 0,0"
         style="fill:#2071b8;fill-opacity:1;fill-rule:evenodd;stroke:none"
         id="path44"
         inkscape:connector-curvature="0" /></g><g
       id="g46"
       transform="translate(230.5264,226.8256)"><path
         d="M 0,0 C 0.104,-2.079 -1.479,-3.857 -3.543,-3.964 -5.607,-4.068 -7.367,-2.47 -7.477,-0.39 -7.586,1.689 -6.001,3.464 -3.934,3.574 -1.869,3.683 -0.11,2.079 0,0"
         style="fill:#2071b8;fill-opacity:1;fill-rule:evenodd;stroke:none"
         id="path48"
         inkscape:connector-curvature="0" /></g><g
       id="g50"
       transform="translate(217.4454,226.1424)"><path
         d="m 0,0 c 0.107,-2.079 -1.479,-3.854 -3.543,-3.964 -2.061,-0.103 -3.824,1.494 -3.933,3.577 -0.11,2.082 1.475,3.854 3.543,3.961 C -1.872,3.683 -0.11,2.083 0,0"
         style="fill:#2071b8;fill-opacity:1;fill-rule:evenodd;stroke:none"
         id="path52"
         inkscape:connector-curvature="0" /></g><g
       id="g54"
       transform="translate(204.3615,225.4627)"><path
         d="m 0,0 c 0.107,-2.083 -1.476,-3.851 -3.54,-3.961 -2.064,-0.11 -3.824,1.494 -3.934,3.574 C -7.58,1.692 -5.998,3.467 -3.93,3.574 -1.869,3.683 -0.107,2.082 0,0"
         style="fill:#2071b8;fill-opacity:1;fill-rule:evenodd;stroke:none"
         id="path56"
         inkscape:connector-curvature="0" /></g><g
       id="g58"
       transform="translate(295.6441,198.3067)"><path
         d="M 0,0 -9.269,54.08 27.696,91.716 0,0 Z"
         style="fill:#2071b8;fill-opacity:1;fill-rule:evenodd;stroke:none"
         id="path60"
         inkscape:connector-curvature="0" /></g><g
       id="g62"
       transform="translate(496.0107,345.6209)"><path
         d="m 0,0 c 2.427,0 4.397,-1.951 4.397,-4.36 0,-2.406 -1.97,-4.358 -4.397,-4.358 -2.427,0 -4.394,1.952 -4.394,4.358 C -4.394,-1.951 -2.427,0 0,0"
         style="fill:#263373;fill-opacity:1;fill-rule:evenodd;stroke:none"
         id="path64"
         inkscape:connector-curvature="0" /></g><g
       id="g66"
       transform="translate(496.0107,330.3627)"><path
         d="m 0,0 c 2.427,0 4.397,-1.951 4.397,-4.36 0,-2.406 -1.97,-4.358 -4.397,-4.358 -2.427,0 -4.394,1.952 -4.394,4.358 C -4.394,-1.951 -2.427,0 0,0"
         style="fill:#263373;fill-opacity:1;fill-rule:evenodd;stroke:none"
         id="path68"
         inkscape:connector-curvature="0" /></g><g
       id="g70"
       transform="translate(275.2181,288.5346)"><path
         d="m 0,0 c -1.497,-1.452 -3.876,-1.427 -5.315,0.055 -1.439,1.481 -1.396,3.86 0.098,5.311 1.494,1.452 3.872,1.427 5.314,-0.055 C 1.536,3.83 1.494,1.451 0,0"
         style="fill:#263373;fill-opacity:1;fill-rule:evenodd;stroke:none"
         id="path72"
         inkscape:connector-curvature="0" /></g><g
       id="g74"
       transform="translate(266.0887,297.9259)"><path
         d="M 0,0 C -1.491,-1.448 -3.875,-1.427 -5.315,0.058 -6.754,1.54 -6.708,3.918 -5.217,5.37 -3.72,6.818 -1.342,6.8 0.098,5.318 1.54,3.833 1.497,1.451 0,0"
         style="fill:#263373;fill-opacity:1;fill-rule:evenodd;stroke:none"
         id="path76"
         inkscape:connector-curvature="0" /></g><g
       id="g78"
       transform="translate(256.9627,307.3232)"><path
         d="M 0,0 C -1.497,-1.454 -3.879,-1.427 -5.315,0.055 -6.754,1.537 -6.708,3.912 -5.214,5.367 -3.72,6.821 -1.342,6.794 0.097,5.315 1.537,3.833 1.494,1.452 0,0"
         style="fill:#263373;fill-opacity:1;fill-rule:evenodd;stroke:none"
         id="path80"
         inkscape:connector-curvature="0" /></g><g
       id="g82"
       transform="translate(247.8333,316.7146)"><path
         d="M 0,0 C -1.494,-1.451 -3.872,-1.427 -5.315,0.055 -6.757,1.537 -6.708,3.918 -5.217,5.37 -3.72,6.824 -1.341,6.794 0.098,5.315 1.537,3.833 1.494,1.458 0,0"
         style="fill:#263373;fill-opacity:1;fill-rule:evenodd;stroke:none"
         id="path84"
         inkscape:connector-curvature="0" /></g><g
       id="g86"
       transform="translate(238.7042,326.1122)"><path
         d="M 0,0 C -1.494,-1.451 -3.872,-1.433 -5.312,0.055 -6.751,1.537 -6.708,3.915 -5.214,5.367 -3.72,6.818 -1.342,6.794 0.098,5.312 1.54,3.83 1.497,1.452 0,0"
         style="fill:#263373;fill-opacity:1;fill-rule:evenodd;stroke:none"
         id="path88"
         inkscape:connector-curvature="0" /></g><g
       id="g90"
       transform="translate(229.5751,335.5067)"><path
         d="M 0,0 C -1.491,-1.451 -3.872,-1.427 -5.312,0.055 -6.751,1.537 -6.708,3.912 -5.214,5.37 -3.72,6.818 -1.339,6.794 0.104,5.312 1.543,3.83 1.497,1.448 0,0"
         style="fill:#263373;fill-opacity:1;fill-rule:evenodd;stroke:none"
         id="path92"
         inkscape:connector-curvature="0" /></g><g
       id="g94"
       transform="translate(247.492,278.8809)"><path
         d="M 0,0 37.358,-24.137 75.217,13.892 0,0 Z"
         style="fill:#263373;fill-opacity:1;fill-rule:nonzero;stroke:none"
         id="path96"
         inkscape:connector-curvature="0" /></g><g
       id="g98"
       transform="translate(496.0107,284.5889)"><path
         d="m 0,0 c 2.427,0 4.397,-1.951 4.397,-4.36 0,-2.406 -1.97,-4.358 -4.397,-4.358 -2.427,0 -4.394,1.952 -4.394,4.358 C -4.394,-1.951 -2.427,0 0,0"
         style="fill:#00a19a;fill-opacity:1;fill-rule:evenodd;stroke:none"
         id="path100"
         inkscape:connector-curvature="0" /></g><g
       id="g102"
       transform="translate(496.0107,269.3309)"><path
         d="m 0,0 c 2.427,0 4.397,-1.951 4.397,-4.36 0,-2.406 -1.97,-4.358 -4.397,-4.358 -2.427,0 -4.394,1.952 -4.394,4.358 C -4.394,-1.951 -2.427,0 0,0"
         style="fill:#00a19a;fill-opacity:1;fill-rule:evenodd;stroke:none"
         id="path104"
         inkscape:connector-curvature="0" /></g><g
       id="g106"
       transform="translate(601.9813,223.0322)"><path
         d="m 0,0 c 0,2.842 -1.915,4.095 -5.55,4.095 l -3.335,0 0,-8.022 C -7.031,-3.964 -4.659,-3.964 -3.4,-3.696 -2.079,-3.403 0,-2.708 0,0 m -82.523,4.394 c -2.079,0 -3.372,-1.452 -4.064,-3.732 -0.46,-1.455 -0.726,-3.601 -0.726,-6.144 0,-3.074 0.43,-9.544 4.656,-9.544 3.434,0 4.757,3.534 4.757,9.678 0,3.201 -0.299,9.742 -4.623,9.742 m 172.308,-22.195 -1.185,0 -0.76,1.519 c -0.299,0.628 -0.527,0.86 -0.725,0.86 -0.135,0 -0.299,-0.068 -0.428,-0.165 -0.134,-0.134 -0.365,-0.366 -0.53,-0.494 -0.665,-0.567 -2.281,-1.985 -4.854,-1.985 -0.994,0 -3.205,0 -5.257,2.546 -2.275,2.775 -2.805,7.364 -2.805,10.071 0,2.808 0.433,6.407 1.948,8.919 1.949,3.269 4.955,3.931 6.376,3.931 4.129,0 6.638,-2.809 7.3,-5.846 L 85.73,0.894 c -0.366,1.088 -1.226,3.631 -3.967,3.631 -0.857,0 -3.336,-0.329 -4.491,-4.293 -0.628,-2.113 -0.628,-5.382 -0.628,-5.486 0,-2.606 0.296,-5.083 1.286,-7.132 1.223,-2.509 3.202,-2.64 3.897,-2.64 1.817,0 2.976,1.024 3.339,1.421 1.287,1.485 1.351,2.771 1.418,4.391 l -4.69,0 0,3.073 7.891,0 0,-11.66 z m -24.103,0.494 -4.229,0 -7.065,15.758 C 53.494,0.464 52.604,3.074 52.439,3.601 52.406,3.635 52.305,3.635 52.272,3.665 52.073,3.5 52.073,3.47 52.073,3.305 c 0,-0.695 0.165,-4.326 0.165,-4.494 l 0,-16.118 -2.774,0 0,24.244 4.296,0 7.034,-15.59 c 0,-0.034 0.957,-2.379 0.988,-2.409 0.171,-0.43 0.863,-2.348 0.994,-2.744 0.067,0 0.134,-0.031 0.201,-0.031 0.128,0.128 0.128,0.165 0.128,0.494 0,0.366 -0.128,2.015 -0.128,2.345 -0.067,1.521 -0.067,2.777 -0.067,3.601 l 0,14.334 2.772,0 0,-24.244 z m -24.305,22.033 -2.147,0 0,-19.886 2.147,0 0,-2.147 -7.629,0 0,2.147 2.049,0 0,19.886 -2.049,0 0,2.211 7.629,0 0,-2.211 z m -12.383,-22.033 -4.095,0 -9.51,12.947 9.645,11.297 3.799,0 0,-0.494 -9.45,-10.672 9.611,-12.746 0,-0.332 z m -14.498,0 -3.302,0 0,24.244 3.302,0 0,-24.244 z m -13.868,0 -5.748,10.77 -3.729,0 0,-10.77 -3.403,0 0,24.244 7.465,0 c 6.769,0 8.223,-4.095 8.223,-6.571 0,-4.561 -3.006,-5.781 -5.186,-6.473 l 6.342,-11.2 -3.964,0 z m -28.565,-0.726 c -5.945,0 -8.189,5.977 -8.189,12.453 0,3.699 0.591,7.068 1.981,9.282 2.013,3.235 4.425,3.598 6.208,3.598 4.099,0 6.242,-2.97 7.233,-5.879 0.726,-2.147 0.924,-4.988 0.924,-6.675 0,-5.778 -1.616,-12.779 -8.157,-12.779 m -19.249,0.726 -3.537,0 -2.308,9.086 c -0.235,0.891 -0.397,1.684 -0.531,2.275 -0.067,0.333 -0.298,1.717 -0.362,2.019 l -0.891,4.656 c -0.1,0.527 -0.168,1.055 -0.265,1.518 0,0.101 -0.098,0.168 -0.165,0.168 -0.067,0 -0.198,-0.067 -0.198,-0.168 l -0.265,-1.518 c -0.494,-2.973 -0.991,-5.717 -1.717,-8.721 l -2.214,-9.315 -3.533,0 -6.209,24.244 3.235,0 2.577,-10.571 c 0.165,-0.726 0.957,-4.654 1.256,-6.239 0.165,-0.893 0.561,-3.009 0.628,-3.369 0.031,-0.168 0.195,-0.363 0.33,-0.363 0.231,0 0.299,0.231 0.393,0.659 0.265,1.057 0.759,3.896 1.028,5.384 0.195,0.958 0.658,2.906 0.924,4.028 l 2.542,10.471 2.772,0 2.513,-10.108 c 0.792,-3.202 0.994,-3.994 1.982,-9.215 0.164,-0.924 0.195,-1.256 0.463,-1.256 0.098,0 0.232,0.101 0.262,0.201 0.068,0.199 0.101,0.659 0.135,0.924 1.024,5.65 1.122,6.242 1.981,9.876 l 2.245,9.578 2.973,0 -6.044,-24.244 z m -35.404,-0.726 c -5.946,0 -8.193,5.977 -8.193,12.453 0,3.699 0.595,7.068 1.985,9.282 2.013,3.235 4.428,3.598 6.208,3.598 4.098,0 6.239,-2.97 7.233,-5.879 0.726,-2.147 0.927,-4.988 0.927,-6.675 0,-5.778 -1.619,-12.779 -8.16,-12.779 m -16.508,2.016 c -2.082,-2.083 -4.464,-2.083 -5.385,-2.083 -1.982,0 -7.961,1.025 -7.961,12.685 0,5.58 1.421,12.648 8.26,12.648 1.552,0 3.565,-0.464 5.05,-1.979 1.652,-1.686 1.981,-3.601 2.146,-4.757 l -3.171,-0.594 c -0.262,2.344 -1.384,4.457 -4.025,4.457 -2.412,0 -3.436,-1.881 -3.964,-3.171 -0.893,-2.177 -0.991,-5.549 -0.991,-5.811 0,-5.318 0.955,-10.502 4.955,-10.502 1.915,0 2.903,1.384 3.202,1.848 0.662,1.122 0.793,2.51 0.857,3.302 l 3.302,-0.594 c -0.128,-1.915 -0.826,-3.995 -2.275,-5.449 m -20.155,-10.157 217.832,0 0,42.502 -217.832,0 0,-42.502 z m 91.384,30.568 c -2.083,0 -3.373,-1.452 -4.065,-3.732 -0.46,-1.455 -0.726,-3.601 -0.726,-6.144 0,-3.074 0.43,-9.544 4.656,-9.544 3.437,0 4.757,3.534 4.757,9.678 0,3.201 -0.299,9.742 -4.622,9.742"
         style="fill:#00a19a;fill-opacity:1;fill-rule:evenodd;stroke:none"
         id="path108"
         inkscape:connector-curvature="0" /></g><g
       id="g110"
       transform="translate(213.0061,310.1315)"><path
         d="M 0,0 C 1.552,-1.39 1.686,-3.766 0.305,-5.302 -1.073,-6.839 -3.452,-6.958 -5.001,-5.565 -6.55,-4.174 -6.69,-1.799 -5.306,-0.259 -3.924,1.278 -1.549,1.394 0,0"
         style="fill:#00a19a;fill-opacity:1;fill-rule:evenodd;stroke:none"
         id="path112"
         inkscape:connector-curvature="0" /></g><g
       id="g114"
       transform="translate(204.2548,300.3895)"><path
         d="m 0,0 c 1.549,-1.39 1.683,-3.769 0.305,-5.309 -1.384,-1.533 -3.76,-1.652 -5.309,-0.259 -1.552,1.391 -1.686,3.769 -0.305,5.306 C -3.927,1.275 -1.555,1.39 0,0"
         style="fill:#00a19a;fill-opacity:1;fill-rule:evenodd;stroke:none"
         id="path116"
         inkscape:connector-curvature="0" /></g><g
       id="g118"
       transform="translate(195.4975,290.6443)"><path
         d="M 0,0 C 1.552,-1.396 1.689,-3.766 0.308,-5.305 -1.076,-6.842 -3.451,-6.961 -5,-5.568 -6.549,-4.177 -6.687,-1.799 -5.305,-0.259 -3.927,1.275 -1.549,1.39 0,0"
         style="fill:#00a19a;fill-opacity:1;fill-rule:evenodd;stroke:none"
         id="path120"
         inkscape:connector-curvature="0" /></g><g
       id="g122"
       transform="translate(186.7466,280.8992)"><path
         d="m 0,0 c 1.549,-1.39 1.686,-3.766 0.305,-5.302 -1.378,-1.54 -3.757,-1.656 -5.306,-0.266 -1.552,1.394 -1.689,3.772 -0.308,5.309 C -3.927,1.275 -1.552,1.391 0,0"
         style="fill:#00a19a;fill-opacity:1;fill-rule:evenodd;stroke:none"
         id="path124"
         inkscape:connector-curvature="0" /></g><g
       id="g126"
       transform="translate(177.9924,271.1572)"><path
         d="m 0,0 c 1.549,-1.393 1.686,-3.769 0.305,-5.309 -1.381,-1.533 -3.76,-1.652 -5.306,-0.262 -1.552,1.394 -1.689,3.769 -0.308,5.306 C -3.93,1.271 -1.552,1.39 0,0"
         style="fill:#00a19a;fill-opacity:1;fill-rule:evenodd;stroke:none"
         id="path128"
         inkscape:connector-curvature="0" /></g><g
       id="g130"
       transform="translate(169.2383,261.412)"><path
         d="M 0,0 C 1.549,-1.394 1.686,-3.766 0.305,-5.305 -1.077,-6.845 -3.452,-6.961 -5.001,-5.568 -6.55,-4.174 -6.69,-1.796 -5.305,-0.265 -3.927,1.275 -1.549,1.393 0,0"
         style="fill:#00a19a;fill-opacity:1;fill-rule:evenodd;stroke:none"
         id="path132"
         inkscape:connector-curvature="0" /></g><g
       id="g134"
       transform="translate(246.4797,277.3897)"><path
         d="M 0,0 48.171,-80.531 37.114,-24.793 0,0 Z"
         style="fill:#00a19a;fill-opacity:1;fill-rule:nonzero;stroke:none"
         id="path136"
         inkscape:connector-curvature="0" /></g><g
       id="g138"
       transform="translate(224.6355,306.7744)"><path
         d="M 0,0 -22.704,34.431 -8.623,71.497 0,0 Z"
         style="fill:#e94f1b;fill-opacity:1;fill-rule:evenodd;stroke:none"
         id="path140"
         inkscape:connector-curvature="0" /></g><g
       id="g142"
       transform="translate(167.1648,347.7064)"><path
         d="M 0,0 33.001,-5.339 47.585,32.269 0,0 Z"
         style="fill:#f39200;fill-opacity:1;fill-rule:nonzero;stroke:none"
         id="path144"
         inkscape:connector-curvature="0" /></g><g
       id="g146"
       transform="translate(166.9178,346.3709)"><path
         d="M 0,0 57.471,-40.892 33.035,-5.863 0,0 Z"
         style="fill:#f9b234;fill-opacity:1;fill-rule:nonzero;stroke:none"
         id="path148"
         inkscape:connector-curvature="0" /></g><g
       id="g150"
       transform="translate(122.4763,232.0854)"><path
         d="M 0,0 43.798,0.936 69.152,-32.696 0,0 Z"
         style="fill:#dcd629;fill-opacity:1;fill-rule:evenodd;stroke:none"
         id="path152"
         inkscape:connector-curvature="0" /></g><g
       id="g154"
       transform="translate(191.7869,260.6012)"><path
         d="M 0,0 -23.469,-26.653 2.089,-61.038 0,0 Z"
         style="fill:#aebd14;fill-opacity:1;fill-rule:nonzero;stroke:none"
         id="path156"
         inkscape:connector-curvature="0" /></g><g
       id="g158"
       transform="translate(190.7288,261.5738)"><path
         d="m 0,0 -69.283,-28.528 45.32,2.147 L 0,0 Z"
         style="fill:#779b2b;fill-opacity:1;fill-rule:nonzero;stroke:none"
         id="path160"
         inkscape:connector-curvature="0" /></g></g></svg>