<?xml version="1.0" encoding="UTF-8" standalone="no"?>
<!-- Created with Inkscape (http://www.inkscape.org/) -->

<svg
   xmlns:dc="http://purl.org/dc/elements/1.1/"
   xmlns:cc="http://creativecommons.org/ns#"
   xmlns:rdf="http://www.w3.org/1999/02/22-rdf-syntax-ns#"
   xmlns:svg="http://www.w3.org/2000/svg"
   xmlns="http://www.w3.org/2000/svg"
   xmlns:sodipodi="http://sodipodi.sourceforge.net/DTD/sodipodi-0.dtd"
   xmlns:inkscape="http://www.inkscape.org/namespaces/inkscape"
   width="110.8008mm"
   height="25.398865mm"
   viewBox="0 0 392.60127 89.995977"
   id="svg4778"
   version="1.1"
   inkscape:version="0.91 r13725"
   sodipodi:docname="casadocodigo.svg"
   inkscape:export-filename="/home/peperrone/Development/SCTI/website/scti2016/assets/imgs/casadocodigo.png"
   inkscape:export-xdpi="110"
   inkscape:export-ydpi="110">
  <defs
     id="defs4780" />
  <sodipodi:namedview
     id="base"
     pagecolor="#ffffff"
     bordercolor="#666666"
     borderopacity="1.0"
     inkscape:pageopacity="0.0"
     inkscape:pageshadow="2"
     inkscape:zoom="0.49497475"
     inkscape:cx="-146.95986"
     inkscape:cy="0.39825646"
     inkscape:document-units="px"
     inkscape:current-layer="layer1"
     showgrid="false"
     fit-margin-top="0"
     fit-margin-left="0"
     fit-margin-right="0"
     fit-margin-bottom="0"
     inkscape:window-width="1366"
     inkscape:window-height="704"
     inkscape:window-x="0"
     inkscape:window-y="27"
     inkscape:window-maximized="1" />
  <metadata
     id="metadata4783">
    <rdf:RDF>
      <cc:Work
         rdf:about="">
        <dc:format>image/svg+xml</dc:format>
        <dc:type
           rdf:resource="http://purl.org/dc/dcmitype/StillImage" />
        <dc:title />
      </cc:Work>
    </rdf:RDF>
  </metadata>
  <g
     inkscape:label="Layer 1"
     inkscape:groupmode="layer"
     id="layer1"
     transform="translate(-392.27079,-795.93564)">
    <g
       class="logo-simbolo"
       id="g9361"
       transform="matrix(2.3375578,0,0,2.3375578,773.29271,280.97166)">
      <path
         style="fill:#ffcd0c;fill-opacity:1"
         inkscape:connector-curvature="0"
         transform="translate(-0.1,0)"
         class="logo-simboloParteInterna"
         d="m -133.6,234.2 0,-7.2 0,0.2 -22.6,0 0,24.7 22.6,0 0,0.3 0,-7.2 -15.9,0 0,-10.8 15.9,0"
         id="path9363" />
      <path
         style="fill:#f58220;fill-opacity:1"
         inkscape:connector-curvature="0"
         class="logo-simboloParteExterna"
         d="m -149.4,251.9 -6.9,0 0,-24.7 22.6,0 0,-6.9 -22.6,0 -6.7,6.9 0,24.7 6.7,6.9 22.6,0 0,-6.9 -15.7,0"
         id="path9365" />
    </g>
    <g
       class="logo-text"
       id="g9367"
       transform="matrix(2.3375578,0,0,2.3375578,722.78508,280.97166)"
       style="fill:#231f20;fill-opacity:1">
      <path
         inkscape:connector-curvature="0"
         transform="translate(-78,-35)"
         class="logo-slogan"
         d="m -18.5,288 -5.1,0 0,-8.7 1.2,0 0,7.7 3.9,0 0,1 z m 3.5,0 -1.1,0 0,-6.5 1.1,0 0,6.5 z m 0.1,-7.7 -1.3,0 0,-1.1 1.3,0 0,1.1 z m 8.1,1.1 -2.5,6.5 -1,0 -2.4,-6.5 1.2,0 1.8,5.1 1.8,-5.1 1.1,0 z m 5.8,1.2 0,0 c -0.9,-0.2 -1.8,0.1 -2.4,0.7 l 0,4.6 -1.1,0 0,-6.5 1.1,0 0,1 c 0.7,-0.6 1.4,-1.1 2.4,-0.9 l 0,1.1 z m 7.7,2.1 c 0,1.7 -0.9,3.4 -2.8,3.4 -2.1,0.1 -3.1,-1.7 -3.1,-3.6 0.1,-1.7 1,-3.3 2.9,-3.3 2.1,0.1 3,1.7 3,3.5 l 0,0 z m -1.1,0 c 0,-1.2 -0.4,-2.5 -1.8,-2.5 -1.4,0 -1.8,1.3 -1.8,2.5 0,1.2 0.4,2.5 1.8,2.5 1.4,0 1.8,-1.3 1.8,-2.5 l 0,0 z m 5.5,3.4 c -0.8,0 -1.5,-0.2 -2.2,-0.6 l 0,-1.2 0.1,0 c 0.3,0.2 0.5,0.4 0.8,0.5 0.7,0.3 1.7,0.5 2.3,0.1 0.9,-0.6 0.2,-1.5 -0.6,-1.7 -0.4,-0.1 -0.8,-0.2 -1.2,-0.3 -1.3,-0.4 -1.9,-1.9 -1,-3 0.9,-1.1 2.9,-0.9 4,-0.3 l 0,1.2 -0.1,0 c -0.7,-0.6 -2.6,-1.3 -3.2,-0.2 -0.7,1.2 1.3,1.4 2,1.6 1.5,0.4 2,2.2 0.8,3.2 -0.3,0.6 -1,0.7 -1.7,0.7 l 0,0 z m 13.2,0 c -2.9,0 -4.3,-3.3 -2.7,-5.6 0.7,-1 2,-1.5 3.3,-1.1 1.3,0.4 1.8,1.6 1.8,2.9 l 0,0.6 -4.5,0 c 0,2 1.8,2.9 3.5,2.1 0.3,-0.1 0.6,-0.3 0.8,-0.5 l 0.1,0 0,1.2 c -0.3,0.1 -0.7,0.3 -1,0.4 -0.5,0 -0.9,0 -1.3,0 l 0,0 z m 1.3,-4.1 c 0,-0.4 -0.1,-0.9 -0.4,-1.3 -0.6,-0.8 -1.9,-0.6 -2.5,0 -0.3,0.4 -0.5,0.8 -0.5,1.3 l 3.4,0 z m 11.1,4 0,-7.7 -2.9,0 0,-1 7,0 0,1 -2.9,0 0,7.7 -1.2,0 z m 8,0.1 c -2.9,0 -4.3,-3.3 -2.7,-5.6 0.7,-1 2,-1.5 3.3,-1.1 1.3,0.4 1.8,1.6 1.8,2.9 l 0,0.6 -4.5,0 c 0,2 1.8,2.9 3.5,2.1 0.3,-0.1 0.6,-0.3 0.8,-0.5 l 0.1,0 0,1.2 c -0.3,0.1 -0.7,0.3 -1,0.4 -0.5,0 -0.9,0 -1.3,0 l 0,0 z m 1.2,-4.1 c 0,-0.4 -0.1,-0.9 -0.4,-1.3 -0.6,-0.8 -1.9,-0.6 -2.5,0 -0.3,0.4 -0.5,0.8 -0.5,1.3 l 3.4,0 z m 6.3,4.1 c -2.4,0 -3.4,-2.2 -3,-4.4 0.5,-2.4 2.9,-3 4.9,-2 l 0,1.2 -0.1,0 c -0.2,-0.2 -0.5,-0.4 -0.8,-0.5 -2,-1 -3.2,0.8 -3,2.7 0.2,2 2.3,2.5 3.8,1.2 l 0.1,0 0,1.2 c -0.3,0.1 -0.6,0.3 -0.9,0.3 -0.2,0.3 -0.6,0.3 -1,0.3 l 0,0 z m 9.6,-0.1 -1.1,0 0,-3.7 c 0,-0.5 0,-1 -0.2,-1.5 -0.6,-1.1 -2.1,-0.2 -2.7,0.3 l 0,4.9 -1.1,0 0,-6.5 1.1,0 0,0.7 c 1.7,-1.5 4,-0.9 4,1.6 l 0,4.2 z m 8.4,-3.3 c 0,1.7 -0.9,3.4 -2.8,3.4 -2.1,0.1 -3.1,-1.7 -3.1,-3.6 0.1,-1.7 1,-3.3 2.9,-3.3 2.1,0.1 3,1.7 3,3.5 l 0,0 z m -1.1,0 c 0,-1.2 -0.4,-2.5 -1.8,-2.5 -1.4,0 -1.8,1.3 -1.8,2.5 0,1.2 0.4,2.5 1.8,2.5 1.4,0 1.8,-1.3 1.8,-2.5 l 0,0 z m 4.9,3.3 -1.1,0 0,-9.1 1.1,0 0,9.1 z m 8.5,-3.3 c 0,1.7 -0.9,3.4 -2.8,3.4 -2.1,0.1 -3.1,-1.7 -3.1,-3.6 0.1,-1.7 1,-3.3 2.9,-3.3 2.1,0.1 3,1.7 3,3.5 l 0,0 z m -1.1,0 c 0,-1.2 -0.4,-2.5 -1.8,-2.5 -1.4,0 -1.8,1.3 -1.8,2.5 0,1.2 0.4,2.5 1.8,2.5 1.4,0 1.8,-1.3 1.8,-2.5 l 0,0 z m 7.7,1.5 0,-3.6 c -1.7,-0.8 -3.2,-0.1 -3.2,1.9 0,0.7 0,1.7 0.7,2.2 0.7,0.4 1.8,0 2.5,-0.5 l 0,0 z m -3.7,2.8 c 0.3,0.1 0.5,0.2 0.8,0.3 0.8,0.2 1.9,0.4 2.5,-0.3 0.3,-0.4 0.3,-0.8 0.3,-1.3 l 0,-0.6 c -1.2,1.1 -3.2,1.1 -4,-0.5 -0.7,-1.3 -0.6,-3.4 0.4,-4.5 0.9,-1 2.4,-1.1 3.5,-0.4 l 0.1,-0.3 1,0 0,5.8 c 0,1.1 -0.2,2.2 -1.2,2.8 -1.1,0.6 -2.6,0.5 -3.7,0.1 l 0.3,-1.1 0,0 z m 9,-1 -1.1,0 0,-6.5 1.1,0 0,6.5 z m 0.1,-7.7 -1.3,0 0,-1.1 1.3,0 0,1.1 z m 6.7,6.1 0,-1.8 c -0.7,0.1 -1.3,0.1 -2,0.3 -0.8,0.3 -1.4,1.3 -0.7,2 0.8,0.7 2,0 2.7,-0.5 l 0,0 z m 0,0.9 c -0.3,0.2 -0.5,0.4 -0.8,0.6 -0.9,0.5 -2,0.5 -2.7,-0.3 -1,-1 -0.7,-2.8 0.6,-3.4 0.9,-0.4 2,-0.4 2.9,-0.5 l 0,-0.2 c 0,-0.4 -0.1,-0.8 -0.4,-1 -0.8,-0.5 -2.2,-0.1 -3.1,0.2 l -0.1,0 0,-1.1 c 1.2,-0.3 2.9,-0.6 4,0.2 0.5,0.4 0.7,1.1 0.7,1.7 l 0,4.5 -1.1,0 0,-0.7 z"
         id="path9369"
         style="fill:#231f20;fill-opacity:1" />
      <path
         inkscape:connector-curvature="0"
         class="logo-casaDoCodigo"
         transform="translate(-77,-14)"
         d="m -16.8,250.8 c -2.2,0.6 -4.7,-0.1 -5.9,-2.1 -1.1,-1.9 -1.2,-4.6 -0.6,-6.7 0.8,-2.6 2.9,-3.8 5.5,-3.6 0.5,0 1.8,0.5 2.1,0.3 0.3,-0.2 0.6,-1 0.9,-1.3 -2.5,-0.9 -5.6,-1.1 -7.9,0.5 -2.2,1.6 -2.9,4.4 -2.9,7 0,2.6 0.8,5.5 3.2,6.9 2.3,1.4 5.7,1.2 7.8,-0.4 -0.2,-0.2 -0.5,-0.6 -0.7,-0.8 -0.1,0 -0.1,-0.2 -0.2,-0.2 -0.3,-0.2 -1.1,0.3 -1.3,0.4 -0.5,0.1 0.4,-0.2 0,0 z m 68.5,-0.4 c -2.2,0.6 -4.7,-0.1 -5.9,-2.1 -1.1,-1.9 -1.2,-4.5 -0.6,-6.6 0.7,-2.5 2.7,-3.9 5.3,-3.7 0.5,0 1,0.1 1.4,0.2 0.3,0.1 0.7,0.3 0.9,0.2 0.3,-0.1 0.7,-1.1 0.9,-1.4 -2.5,-0.9 -5.6,-1.1 -7.9,0.5 -2.2,1.6 -2.9,4.4 -2.9,7 0,2.6 0.8,5.5 3.2,6.9 2.3,1.4 5.7,1.2 7.8,-0.4 -0.2,-0.2 -0.5,-0.6 -0.7,-0.8 -0.1,0 -0.1,-0.2 -0.2,-0.2 -0.3,-0.2 -1.1,0.3 -1.3,0.4 -0.5,0.1 0.4,-0.2 0,0 z m -57.4,0.7 c -0.6,-1.6 -0.2,-3.7 -0.2,-5.4 0,-1.5 0.1,-3.3 -1.5,-4.1 -1.4,-0.7 -3.5,-0.4 -4.9,0 -0.3,0.1 -0.9,0.2 -1.1,0.4 -0.4,0.4 -0.2,0 -0.1,0.4 0,0.3 0.3,0.8 0.4,1.1 1.1,-0.6 2.9,-1 4.2,-0.7 1.5,0.4 1.4,2 1.2,3.3 -0.8,-0.1 -1.7,-0.1 -2.5,0 -1.1,0.1 -2.3,0.1 -3.1,0.7 -1.8,1.4 -1.8,4.4 0.4,5.4 1,0.5 2.3,0.4 3.3,0.1 0.5,-0.1 1,-0.4 1.4,-0.7 0.1,-0.1 0.6,-0.7 0.7,-0.7 0.2,0 0.4,1 0.6,1.2 0.2,0.2 0.3,0.3 0.6,0.3 0.5,0.1 1,0 1.5,0 -0.3,-0.4 -0.7,-0.8 -0.9,-1.3 -0.2,-0.5 0.2,0.5 0,0 z m -1.9,-1.9 c -0.5,1.3 -2.2,1.9 -3.5,1.7 -1.5,-0.2 -2.3,-2.1 -0.9,-3.1 0.6,-0.4 1.3,-0.4 2,-0.4 0.4,0 1.9,-0.3 2.3,0 0.2,0.2 0.1,1.3 0.1,1.8 z m 9.3,-2.5 c -1.1,-0.8 -4.6,-1.1 -3.9,-3.2 0.6,-1.6 3.5,-0.8 4.5,-0.3 0.1,-0.3 0.5,-1.2 0.4,-1.4 -0.1,-0.2 -1.1,-0.4 -1.4,-0.5 -0.5,-0.1 -1.1,-0.2 -1.7,-0.2 -2.3,-0.1 -4.3,1.3 -3.6,3.9 0.3,1.1 1.3,1.7 2.2,2.1 1,0.4 2.7,0.7 3,2 0.6,2.9 -3.8,2 -5.1,1.3 -0.1,0.3 -0.2,0.6 -0.3,0.9 -0.2,0.5 -0.3,0.6 0.3,0.8 1.2,0.5 2.7,0.7 4,0.5 2.9,-0.5 4.2,-4.2 1.6,-5.9 z m 11.1,4.4 c -0.6,-1.6 -0.2,-3.7 -0.2,-5.4 0,-1.5 0.1,-3.3 -1.5,-4.1 -1.4,-0.7 -3.5,-0.4 -4.9,0 -0.3,0.1 -0.9,0.2 -1.1,0.4 -0.4,0.4 -0.2,0 -0.1,0.4 0,0.3 0.3,0.8 0.4,1.1 1.1,-0.6 2.9,-1 4.2,-0.7 1.5,0.4 1.4,2 1.2,3.3 -0.8,-0.1 -1.7,-0.1 -2.5,0 -1.1,0.1 -2.3,0.1 -3.1,0.7 -1.8,1.4 -1.8,4.4 0.4,5.4 1,0.5 2.3,0.4 3.3,0.1 0.5,-0.1 1,-0.4 1.4,-0.7 0.1,-0.1 0.6,-0.7 0.7,-0.7 0.2,0 0.4,1 0.6,1.2 0.2,0.2 0.3,0.3 0.6,0.3 0.5,0.1 1,0 1.5,0 -0.4,-0.4 -0.7,-0.8 -0.9,-1.3 -0.2,-0.5 0.2,0.5 0,0 z m -1.9,-1.9 c -0.5,1.3 -2.2,1.9 -3.5,1.7 -1.5,-0.2 -2.3,-2.1 -0.9,-3.1 0.6,-0.4 1.3,-0.4 2,-0.4 0.4,0 1.9,-0.3 2.3,0 0.2,0.2 0.1,1.3 0.1,1.8 z m 17,-0.7 c 0,-2.6 0,-5.1 0,-7.7 0,-0.7 0,-1.5 0,-2.2 0,-0.4 0.1,-1.1 0,-1.5 -0.1,-0.4 0,-0.3 -0.6,-0.3 -0.2,0 -0.8,-0.1 -1,0 -0.3,0.1 0,-0.1 -0.2,0.2 -0.3,0.6 0,1.8 0,2.5 0,0.6 0,1.3 0,1.9 -2.3,-0.8 -5.3,-0.4 -6.6,1.9 -1.1,2 -1.1,5.5 0.1,7.5 1.3,2 4.6,2.2 6.3,0.5 0.3,-0.3 0.3,-0.6 0.6,-0.5 0.1,0.1 0.2,0.9 0.3,1 0.1,0.3 0,0.3 0.3,0.4 0.2,0.1 0.8,0 1,0 -0.2,-1.1 -0.2,-2.4 -0.2,-3.7 z m -1.8,0.2 c -0.3,1.3 -1,2.2 -2.4,2.3 -1.4,0.1 -2.4,-0.6 -2.8,-1.9 -0.7,-2.1 -0.5,-5.7 2.1,-6.4 0.7,-0.2 2.7,-0.3 3.1,0.5 0.2,0.3 0,1.2 0,1.6 0,1.4 0,2.6 0,3.9 z m 11.3,-6.1 c -1.8,-2.3 -5.9,-2.1 -7.5,0.3 -1.4,2.1 -1.4,6 0.2,8.1 1.7,2.2 5.7,2.1 7.4,-0.1 1.6,-2.1 1.6,-6.2 -0.1,-8.3 -0.4,-0.5 0.4,0.6 0,0 z m -3.6,8.5 c -2.7,0 -3.1,-3.1 -3,-5.1 0.2,-1.8 1,-3.3 3,-3.3 2.7,0 3.2,3 3,5.1 -0.2,1.7 -1.1,3.3 -3,3.3 -0.6,0 2,0 0,0 z m 28.8,-14.4 c -0.5,0 -1,0 -1.5,0 -0.6,0 -0.5,-0.1 -0.8,0.3 -0.7,0.8 -1.2,1.9 -1.7,2.8 0.4,0 1,0.1 1.3,0 0.2,-0.1 0.5,-0.6 0.7,-0.8 0.6,-0.7 1.3,-1.5 2,-2.3 z m -2.8,4.4 c -2.3,0 -4.3,1.4 -5,3.6 -0.7,2.2 -0.3,5 1.6,6.5 1.6,1.3 4,1.4 5.8,0.4 2.1,-1.1 2.9,-3.6 2.6,-5.8 -0.3,-2.8 -2.3,-4.7 -5,-4.7 z m -0.1,9.6 c -4.4,0 -4.3,-8.4 0.2,-8.2 4.2,0.2 4,8.2 -0.2,8.2 z m 16.6,-14.4 c -0.4,0 -1.7,-0.2 -1.9,0 -0.2,0.2 0,1.5 0,1.7 0,1.5 0,3.1 0,4.6 -1.3,-1.5 -3.3,-2.1 -5.2,-1.1 -1.9,1 -2.8,3.2 -2.8,5.2 0,2.1 0.9,4.3 2.9,5.1 0.9,0.4 2,0.4 3,0.1 0.5,-0.2 1,-0.4 1.4,-0.8 0.3,-0.3 0.6,-0.9 0.9,-1.1 0,0.4 -0.1,1.6 0.1,1.8 0.2,0.2 1.4,0 1.7,0 -0.3,-5.1 -0.1,-10.3 -0.1,-15.5 z m -1.9,11.2 c 0,2.2 -2.3,3.9 -4.3,2.8 -1.9,-1 -2.1,-3.8 -1.4,-5.6 0.7,-1.9 3,-2.9 4.7,-1.5 1.2,1.1 1,2.8 1,4.3 z m 15.8,-4.6 c -0.6,-0.6 -1,-1.3 -1.9,-1.6 -1,-0.4 -2.1,-0.3 -3,0 -2,0.7 -3.1,2.7 -3.3,4.7 -0.2,2.1 0.6,4.4 2.6,5.4 0.9,0.5 2,0.6 3,0.3 1.1,-0.3 1.6,-1 2.4,-1.7 0,1.4 0.1,3.1 -1.1,4.2 -1.4,1.2 -4,0.8 -5.4,-0.1 -0.1,0.3 -0.2,0.7 -0.3,1 -0.2,0.6 0,0.6 0.6,0.9 1.3,0.5 2.9,0.6 4.3,0.4 3,-0.6 3.9,-3 3.9,-5.8 0,-3.1 -0.2,-6.2 0.1,-9.3 -0.3,0 -1.5,-0.2 -1.7,0 -0.3,0.2 -0.2,1.3 -0.2,1.6 z m -0.3,4.5 c 0,2.4 -2.7,3.9 -4.6,2.4 -1.6,-1.2 -1.7,-3.8 -0.9,-5.5 0.8,-1.7 3.2,-2.5 4.6,-1 1.2,1.1 0.9,2.7 0.9,4.1 z m 8.5,-6.3 c -2.2,0 -4.2,1.3 -4.9,3.4 -0.8,2.2 -0.3,5 1.5,6.5 1.6,1.3 4,1.5 5.8,0.6 2.2,-1.1 3,-3.6 2.7,-5.9 -0.4,-2.7 -2.4,-4.6 -5.1,-4.6 z m -0.1,9.6 c -4.4,0 -4.3,-8.4 0.2,-8.2 4.2,0.2 4,8.2 -0.2,8.2 z M 79.2,236.3 c -1.5,0 -1.6,2.4 0,2.4 1.5,0 1.6,-2.4 0,-2.4 z m -1,5 c 0.4,0 1.7,-0.2 1.9,0.1 0.2,0.3 0,1.6 0,1.9 0,2.3 0,4.6 0,6.9 0,0.3 0.2,1.6 0,1.8 -0.1,0.1 -1.8,0.1 -1.9,0 -0.2,-0.2 0,-1.4 0,-1.6 0,-1.1 0,-2.2 0,-3.3 0,-2 0,-3.9 0,-5.8 z"
         id="path9371"
         style="fill:#231f20;fill-opacity:1" />
    </g>
  </g>
</svg>
