<?xml version="1.0" encoding="UTF-8" standalone="no"?>
<svg
   xmlns:dc="http://purl.org/dc/elements/1.1/"
   xmlns:cc="http://creativecommons.org/ns#"
   xmlns:rdf="http://www.w3.org/1999/02/22-rdf-syntax-ns#"
   xmlns:svg="http://www.w3.org/2000/svg"
   xmlns="http://www.w3.org/2000/svg"
   xmlns:xlink="http://www.w3.org/1999/xlink"
   xmlns:sodipodi="http://sodipodi.sourceforge.net/DTD/sodipodi-0.dtd"
   xmlns:inkscape="http://www.inkscape.org/namespaces/inkscape"
   width="746"
   height="234"
   id="svg2"
   version="1.1">
  <g
     inkscape:label="Layer 1"
     inkscape:groupmode="layer"
     id="layer1"
     transform="translate(-21.61104,-322.57497)">
    <path
       style="fill:#e41e2b"
       id="path152"
       d="m 285.52607,539.29007 c 19.74136,-0.77096 41.4808,4.75872 59.34107,17.2849 -5.96595,-8.5955 -22.79208,-21.19668 -36.86237,-29.89987 -14.28558,-8.8062 -32.60442,-14.47267 -53.64211,-14.65056 -54.21737,-0.45897 -113.24036,25.88061 -153.24715,26.23139 -47.14728,0.41597 -49.50095,-35.87973 -46.00545,-55.79908 7.52397,-42.91723 37.96661,-83.86926 57.54878,-105.44952 19.58247,-21.59905 40.09589,-38.35988 57.1515,-42.64134 17.03672,-4.28145 15.44121,8.6892 13.34953,10.4767 -2.15707,0.02 -6.27933,0.48697 -8.6143,2.10568 -3.68249,2.56415 -8.5956,7.17778 -8.89509,14.52886 -0.51497,11.33284 14.12649,13.33543 24.70608,-10.4066 7.22918,-16.17577 -4.22996,-27.15783 -13.73801,-28.22937 -13.04095,-1.44122 -32.9694,3.10222 -56.78172,18.38924 -41.41071,26.59626 -96.78372,85.71295 -98.20624,151.24927 -0.80995,37.42394 23.63434,58.44743 57.14651,58.44743 34.93468,0 79.04514,-20.51352 123.49247,-21.02349 27.49481,-0.25699 45.30379,9.37236 54.33917,25.10835 0,0.009 8.97018,-14.89374 28.91733,-15.72199 m 124.6343,-157.58021 h -22.3759 l -12.62898,20.47602 h 22.37101 l 12.63387,-20.47602 z m 330.44714,-36.75948 c -16.54555,10.61219 -39.47813,20.24673 -61.47946,18.12236 -5.56348,5.79286 -11.54823,12.44188 -17.54688,19.74146 38.23349,7.56136 71.63786,-16.14317 89.45153,-36.28701 11.08976,-12.59627 16.57835,-23.80743 16.57835,-23.80743 0,0 -10.61229,11.66503 -27.00354,22.23062 z m -18.07096,93.38201 h -23.56414 l -3.80878,5.92856 c 0,0 -4.79152,-8.6658 -12.93336,-8.51141 -13.94859,0.22899 -27.89719,10.86038 -44.09165,29.31961 -11.88042,13.53222 -31.58438,43.63788 -31.58438,43.63788 0,0 -15.10913,23.26956 -22.75948,21.45866 -13.01755,-3.10212 10.94916,-51.32103 10.94916,-51.32103 0,0 12.60098,-7.79086 28.91723,-21.54756 10.28491,-8.6519 22.10903,-20.54622 32.9881,-31.56558 9.87783,-10.01822 21.54766,-23.65333 32.61852,-38.58457 -2.82624,0.45897 -5.73657,0.74395 -8.7033,0.93094 -9.92913,13.08755 -20.54621,24.80887 -29.56279,34.12503 -13.42463,13.8645 -25.75892,25.23485 -34.7428,32.46413 -8.5817,6.9299 -14.10778,10.03682 -14.10778,10.03682 0,0 16.40515,-33.68995 43.74077,-70.90811 27.34042,-37.19455 65.60672,-71.79695 62.60729,-55.3732 -0.86195,4.71653 -3.77138,11.45464 -8.19313,19.45598 3.12092,-0.64697 6.15765,-1.43652 9.05408,-2.36767 6.57892,-13.59761 8.80619,-24.80887 3.91177,-28.03758 -20.05484,-13.21394 -71.08119,41.42471 -96.66212,73.20078 -25.56712,31.74366 -48.72889,80.27586 -48.72889,80.27586 0,0 -3.98197,1.66581 -8.42261,2.50806 -2.78864,0.51397 -3.98187,0.42997 -4.43564,0.24299 -0.22899,-0.07 -0.24299,-0.24299 -0.24299,-0.24299 0,0 22.4968,-42.05637 -0.52797,-47.65255 -22.23162,-5.37179 -60.74559,35.73934 -74.43191,64.35719 -9.40455,19.61496 -14.70315,44.32094 1.40392,50.2168 17.4415,6.36823 47.09459,-25.49213 54.06058,-34.7569 6.9831,-9.26476 15.6688,-24.63588 15.6688,-24.63588 0,0 4.26375,-0.24298 6.59712,-0.54196 4.43944,-0.65997 6.52732,-1.21523 6.52732,-1.21523 0,0 -2.87743,7.57986 -6.00045,17.12471 -5.82546,17.89687 -11.07186,43.46339 9.87853,44.63762 13.35273,0.74396 32.9343,-23.33515 32.9343,-23.33515 0,0 -5.2814,21.43996 12.037,23.33515 12.79097,1.42272 31.40749,-18.35214 31.40749,-18.35214 0,0 -4.05296,17.05472 8.91359,18.54533 11.08896,1.27133 26.84605,-11.72072 39.7602,-26.0382 14.10719,-15.63419 24.93326,-32.75931 24.93326,-32.75931 h -8.21192 c 0,0 -18.14246,27.54881 -30.88132,34.93489 -10.4752,6.05255 -6.8955,-3.64949 -3.71989,-8.7384 3.5093,-5.64937 47.42767,-80.23817 47.42767,-80.23817 z M 543.1233,490.2338 c -0.31298,0.74396 -6.20904,11.00056 -12.52598,19.0535 -6.7895,8.6844 -19.23139,21.75804 -26.68995,19.002 -11.68393,-4.33285 1.17463,-29.75948 9.56414,-42.11257 8.42262,-12.34809 9.36766,-13.17644 9.59695,-13.52732 0.24299,-0.31298 0.48697,-0.63296 0.68796,-0.22898 0.21499,0.40297 2.87753,5.45858 8.17933,9.84293 5.29669,4.44054 10.3877,6.78941 10.80887,6.9298 0.42998,0.15199 0.71596,0.29898 0.40298,1.02434 z m 5.2642,-9.18067 c -0.74396,1.22133 -1.28223,1.29622 -2.78884,0.90295 -2.71854,-0.72996 -13.8783,-5.91446 -13.78941,-17.3739 0.06,-11.17366 15.80619,-22.10453 21.98254,-17.4392 5.75546,4.37045 3.01812,15.54431 0.86195,21.21538 -2.17598,5.66647 -5.77257,11.91321 -6.24674,12.70357 z m 106.96093,27.6399 c -3.10212,4.24396 -5.68048,8.10424 -8.03404,10.80408 -5.01601,5.79297 -8.30092,8.47871 -11.21125,9.19467 -1.47392,0.34598 -3.28001,0.25798 -4.49194,-0.47297 -4.28146,-2.57815 -1.28223,-12.75527 6.15774,-26.37178 6.82681,-12.45578 14.70185,-24.93046 27.6538,-39.24864 12.98466,-14.42596 17.96807,-15.09043 21.59896,-14.95003 3.06962,0.15199 3.4908,3.3503 3.4908,3.3503 0,0 -0.20099,0.72996 -0.70196,1.57681 -4.29555,7.45857 -25.89931,44.39604 -34.46221,56.11726 z M 184.53099,379.42639 c -22.72198,-5.80676 -60.46421,32.8992 -76.37799,64.37589 -9.81233,19.40928 -14.10768,43.83457 3.35031,50.1841 17.45789,6.33564 47.09098,-25.49203 54.05828,-34.75669 6.9673,-9.25087 18.38914,-27.8131 18.38914,-27.8131 0,0 3.4906,-0.67396 5.78816,-1.19573 2.28337,-0.50097 6.00336,-1.57991 6.00336,-1.57991 0,0 -4.30025,7.66746 -8.17453,15.50971 -4.59964,9.30226 -17.09291,40.28767 7.03279,49.57114 23.02158,8.87628 55.83168,-28.14528 57.55378,-28.82824 0,0 -9.75603,25.21115 5.40439,29.09022 16.64844,4.24876 34.88319,-17.07181 34.88319,-17.07181 0,0 -3.84628,16.00027 9.12447,17.49299 23.22716,2.70454 64.30559,-56.69273 64.30559,-56.69273 h -8.21183 c 0,0 -20.89709,26.88165 -30.95271,32.46113 -10.05552,5.56167 -6.43853,-4.33475 -3.70129,-8.7379 3.4907,-5.61488 47.88194,-79.7982 47.88194,-79.7982 H 347.3425 l -2.71844,4.31406 c 0,0 -4.86182,-7.42118 -12.98485,-6.89711 -23.60174,1.53012 -51.67672,39.14574 -64.02971,55.74759 -12.33429,16.56414 -38.96815,48.23281 -53.00564,42.60154 -15.28212,-6.16025 -0.07,-34.38962 9.96672,-50.97256 10.94917,-18.05706 30.35365,-35.93603 38.02291,-36.07642 9.43776,-0.18699 5.71787,8.38972 5.71787,8.38972 0,0 -7.05149,-0.90295 -12.1564,5.54488 -3.61709,4.54344 -6.61642,11.19255 -3.17722,14.82344 5.56358,5.84437 12.79287,-0.08 17.10712,-6.71911 13.47592,-20.61651 3.61699,-31.47688 -6.9626,-33.05839 -22.549,-3.38301 -43.3244,25.56692 -59.09789,36.3245 -10.94927,7.47247 -15.51151,6.8784 -15.51151,6.8784 0,0 18.98351,-37.26964 -3.98187,-43.11401 z m 102.04782,66.67815 c 6.8082,-12.47468 16.11047,-24.49538 28.17787,-39.58581 12.091,-15.07153 18.10845,-16.30216 21.74425,-16.14317 3.06942,0.17399 3.50929,3.35041 3.50929,3.35041 0,0 -26.26888,45.72946 -35.79553,58.8171 -3.10692,4.26266 -5.77417,7.87975 -8.10903,10.56079 -5.01601,5.81167 -8.6659,8.60041 -11.47334,9.30227 -1.45522,0.38897 -3.28011,0.27198 -4.49194,-0.47298 -4.28156,-2.59695 -1.00754,-12.21259 6.43843,-25.82901 z M 175.15844,431.2575 c -0.31299,0.71596 -7.82335,13.12504 -14.12159,21.19668 -6.79431,8.6845 -19.33898,21.80954 -26.83035,19.0395 -11.68383,-4.31895 0.77095,-29.61909 9.19457,-41.95338 8.40381,-12.35289 9.63444,-13.94849 9.87773,-14.26678 0.24298,-0.29898 0.47297,-0.61396 0.68796,-0.22898 0.20099,0.38897 2.87353,5.88186 8.6665,9.60174 5.78806,3.70129 11.72132,5.40449 12.1424,5.52608 0.41697,0.17399 0.70196,0.33198 0.40297,1.08734 z m 9.77493,-19.30168 c -2.17577,5.68527 -4.12226,9.28366 -4.51074,10.12591 -0.65996,1.35122 -2.27867,0.91695 -2.27867,0.91695 -1.82499,-0.07 -16.12447,-3.33151 -16.04037,-14.80955 0.06,-11.17375 15.81099,-22.10912 21.98753,-17.43929 5.75537,4.37045 3.01803,15.5116 0.86195,21.21197 z m 283.31875,23.65333 c -11.71662,0.96094 -32.44063,11.44054 -43.74087,34.39182 -11.28145,22.93267 -11.33285,37.05896 -11.33285,37.05896 0,0 5.96586,-6.49463 15.07143,-13.35423 9.15727,-6.84091 15.93268,-9.26477 15.93268,-9.26477 0,0 1.6985,-8.40381 5.90966,-17.2099 4.10836,-8.56291 10.59839,-17.4767 18.65122,-19.49818 16.32096,-4.08496 8.49261,25.67472 -3.4719,45.0791 -6.43852,10.4392 -29.28701,40.42797 -48.95337,40.42797 -19.67137,0 -23.46145,-18.96931 -19.32039,-36.68929 4.14117,-17.72467 9.87763,-40.25497 38.56568,-81.16941 28.70674,-40.93804 59.76715,-65.18554 77.74901,-75.38145 18.45944,-10.4767 25.9881,-5.87706 25.9881,-5.87706 0,0 -23.58294,14.51006 -36.98876,31.96805 -12.82556,16.68594 -20.47602,35.48215 -14.52876,44.70952 5.68507,8.7734 25.63702,8.93249 47.61975,-22.84368 21.72544,-31.32239 16.25086,-49.97362 16.25086,-49.97362 0,0 2.61085,-0.87595 4.36555,-1.08823 10.58439,-1.42062 19.0584,1.37112 32.19734,8.10923 13.75671,7.05149 26.95204,18.37034 45.0278,27.61631 5.45589,-5.96576 11.51064,-12.2998 17.89777,-18.49194 -24.39259,-11.86171 -42.90343,-28.77694 -66.81855,-30.37245 -20.80819,-1.40371 -37.21815,6.17655 -37.21815,6.17655 0,0 -6.33083,-8.6519 -25.9132,-5.82557 -19.60107,2.82314 -79.90609,28.07198 -131.24583,110.24114 -46.41262,74.32851 -24.53298,116.91346 8.82489,116.42228 36.16052,-0.51397 70.55243,-40.74454 82.18466,-73.90753 11.65123,-33.14249 -2.10548,-42.14517 -12.70377,-41.25152 z m 70.99221,-69.05981 c -6.05015,14.80964 -15.01534,25.17854 -23.82623,33.07229 -11.28155,10.14451 -17.49549,9.80763 -20.17653,7.75815 -6.9861,-5.33429 2.40026,-25.45933 18.72131,-43.44619 16.24607,-17.93037 30.23206,-23.51265 30.23206,-23.51265 0.02,0.22899 2.34896,8.35222 -4.95061,26.1284 z"
       clip-path="none" />
  </g>
</svg>
