<?xml version="1.0" encoding="UTF-8" standalone="no"?>
<!-- Created with Inkscape (http://www.inkscape.org/) -->

<svg
   xmlns:dc="http://purl.org/dc/elements/1.1/"
   xmlns:cc="http://creativecommons.org/ns#"
   xmlns:rdf="http://www.w3.org/1999/02/22-rdf-syntax-ns#"
   xmlns:svg="http://www.w3.org/2000/svg"
   xmlns="http://www.w3.org/2000/svg"
   xmlns:sodipodi="http://sodipodi.sourceforge.net/DTD/sodipodi-0.dtd"
   xmlns:inkscape="http://www.inkscape.org/namespaces/inkscape"
   width="162.1494mm"
   height="150.3351mm"
   viewBox="0 0 574.54511 532.68342"
   id="svg2"
   version="1.1"
   inkscape:version="0.91 r13725"
   sodipodi:docname="digiart.svg">
  <defs
     id="defs4" />
  <sodipodi:namedview
     id="base"
     pagecolor="#ffffff"
     bordercolor="#666666"
     borderopacity="1.0"
     inkscape:pageopacity="0.0"
     inkscape:pageshadow="2"
     inkscape:zoom="0.7"
     inkscape:cx="241.66996"
     inkscape:cy="158.15456"
     inkscape:document-units="px"
     inkscape:current-layer="layer1"
     showgrid="false"
     fit-margin-top="0"
     fit-margin-left="0"
     fit-margin-right="0"
     fit-margin-bottom="0"
     inkscape:window-width="1366"
     inkscape:window-height="704"
     inkscape:window-x="0"
     inkscape:window-y="27"
     inkscape:window-maximized="1" />
  <metadata
     id="metadata7">
    <rdf:RDF>
      <cc:Work
         rdf:about="">
        <dc:format>image/svg+xml</dc:format>
        <dc:type
           rdf:resource="http://purl.org/dc/dcmitype/StillImage" />
        <dc:title></dc:title>
      </cc:Work>
    </rdf:RDF>
  </metadata>
  <g
     inkscape:label="Layer 1"
     inkscape:groupmode="layer"
     id="layer1"
     transform="translate(-83.701662,-178.33122)">
    <path
       style="fill:#000000"
       d="m 149.85715,709.60947 c -4.19545,-2.12789 -6.21821,-4.83422 -6.97903,-9.33747 -1.86956,-11.06582 10.05657,-19.09743 19.12793,-12.88164 4.23,2.89844 5.8511,6.03707 5.8511,11.32836 0,8.62724 -10.24332,14.82487 -18,10.89075 z m 10.53273,-1.9785 c 4.07942,-2.10954 6.27389,-6.7087 5.47037,-11.46471 -0.86178,-5.10084 -4.28588,-8.12684 -9.91383,-8.76119 -4.16516,-0.46947 -4.82307,-0.22337 -8.06226,3.01582 -2.85001,2.85001 -3.52701,4.28811 -3.52701,7.49215 0,8.56141 8.41074,13.65942 16.03273,9.71793 z m 213.46727,2.84493 c -1.1,-0.29021 -3.05526,-1.49524 -4.34501,-2.67783 -7.23812,-6.63671 -6.01599,-16.9758 2.49614,-21.11709 4.1768,-2.03209 6.61615,-1.93377 11.58501,0.46692 4.98606,2.40901 4.76386,2.39346 4.76386,0.33333 0,-0.91666 0.3375,-1.32918 0.75,-0.9167 1.0269,1.02684 1.09383,23.58337 0.07,23.58337 -0.45101,0 -0.82,-0.675 -0.82,-1.5 0,-1.93719 -1.88138,-1.91733 -4.04723,0.0427 -1.86652,1.68918 -7.29973,2.61714 -10.45277,1.78526 z m 11.75,-5.28203 c 4.14577,-4.63952 3.85649,-10.13948 -0.77701,-14.77298 -3.25045,-3.25045 -3.88697,-3.48643 -8.1177,-3.00957 -5.84179,0.65846 -9.30376,3.9335 -10.05157,9.50887 -0.42996,3.2056 -0.0668,4.75165 1.69828,7.23052 2.82011,3.96047 5.42202,5.08737 10.498,4.54672 2.87852,-0.30659 4.77102,-1.28889 6.75,-3.50356 z m 121.107,4.96245 c -4.225,-1.705 -5.357,-4.81782 -5.357,-14.73093 0,-5.51833 0.40519,-9.27749 1,-9.27749 0.59649,0 1,3.83333 1,9.5 0,10.9326 1.38998,13.5 7.30887,13.5 6.51866,0 7.55106,-2.81374 7.67463,-20.91667 0.009,-1.32916 0.33489,-2.09828 0.72403,-1.70914 1.15738,1.15738 1.21513,15.54922 0.0755,18.81833 -0.6865,1.96931 -2.215,3.50784 -4.38625,4.41505 -3.76233,1.572 -4.98643,1.63303 -8.03979,0.40085 z m 135.18468,0.30597 c -3.58473,-0.99081 -6.35151,-3.39387 -8.06498,-7.00474 -5.39284,-11.36455 7.45017,-22.8442 18.15534,-16.22805 2.96612,1.83317 3.44054,1.89284 3.97502,0.5 1.52757,-3.98079 2.25837,-0.64435 2.28199,10.4184 0.0141,6.6 -0.24308,12 -0.57148,12 -0.32839,0 -1.16855,-0.78153 -1.86701,-1.73672 -1.20404,-1.64663 -1.37194,-1.64441 -3.23621,0.0427 -2.09489,1.89585 -7.44042,2.90176 -10.67267,2.00837 z m 9.23325,-3.31859 c 5.9219,-3.61058 6.77051,-11.90491 1.73337,-16.94205 -2.05109,-2.05109 -3.52898,-2.55375 -7.5083,-2.55375 -3.97932,0 -5.45721,0.50266 -7.5083,2.55375 -2.97338,2.97338 -4.10274,8.27607 -2.59746,12.19579 1.23398,3.21323 6.52404,6.74298 10.10576,6.74298 1.375,0 3.97372,-0.89852 5.77493,-1.99672 z M 89.35715,699.17469 c 0,-10.56374 -0.10701,-11.13484 -2.25,-12.00795 l -2.25,-0.91672 2.25,-0.66769 c 2.10933,-0.62595 2.25,-1.21059 2.25,-9.35106 0,-5.4204 0.45093,-9.1343 1.2,-9.88337 1.44926,-1.44926 6.8,-1.60664 6.8,-0.2 0,0.55 -1.35,1 -3,1 l -3,0 0,9 c 0,8.93333 0.0185,9 2.5,9 1.375,0 2.5,0.45 2.5,1 0,0.55 -1.125,1 -2.5,1 l -2.5,0 0,10.94098 c 0,6.2153 -0.43192,11.20793 -1,11.55902 -0.64371,0.39783 -1,-3.33369 -1,-10.47321 z m 130.0318,-1.77679 c 0.0287,-11.51537 0.17611,-12.55911 1.52207,-10.77869 0.81964,1.08421 1.25533,2.58352 0.9682,3.33178 -0.28714,0.74827 -0.52207,5.59868 -0.52207,10.7787 0,5.61214 -0.40412,9.41821 -1,9.41821 -0.61604,0 -0.98779,-4.89546 -0.9682,-12.75 z m 62.9682,0.0357 c 0,-10.49379 0.22615,-12.45855 1.29491,-11.25 1.51008,1.70762 1.15402,23.96429 -0.38339,23.96429 -0.50133,0 -0.91152,-5.72143 -0.91152,-12.71429 z m 15,3.4368 c 0,-11.62579 -1.29877,-14.09482 -7.12212,-13.53947 -3.93913,0.37565 -5.17375,-0.47179 -2.29609,-1.57605 2.68493,-1.03031 4.81514,-0.64171 7.40969,1.3517 2.21021,1.69811 2.67601,1.74722 4.12597,0.43502 0.89897,-0.81356 3.23225,-1.73848 5.18506,-2.05537 2.92396,-0.4745 4.00472,-0.12202 6.12402,1.99728 2.42862,2.42862 2.57347,3.14825 2.57347,12.78559 0,5.61667 -0.28942,9.9227 -0.64316,9.56896 -0.35374,-0.35373 -0.55153,-4.45304 -0.43954,-9.10957 0.25505,-10.60498 -1.24196,-13.5806 -6.83231,-13.5806 -5.55198,0 -6.08499,1.11245 -6.08499,12.7 0,6.2 -0.39806,10.3 -1,10.3 -0.59481,0 -1,-3.75916 -1,-9.27749 z m 146,-2.22251 c 0,-9.55556 -0.25362,-11.5 -1.5,-11.5 -0.825,0 -1.5,-0.45 -1.5,-1 0,-0.55 0.675,-1 1.5,-1 1.15152,0 1.5,-1.27778 1.5,-5.5 0,-3.025 0.45,-5.5 1,-5.5 0.55,0 1,2.475 1,5.5 0,5.16454 0.14888,5.5 2.44098,5.5 1.34254,0 2.7191,0.45 3.05902,1 0.36058,0.58342 -0.65628,1 -2.44098,1 l -3.05902,0 0,11.5 c 0,7 -0.3913,11.5 -1,11.5 -0.6087,0 -1,-4.5 -1,-11.5 z m 129,-0.5 c 0,-6.60606 0.41204,-12 0.91667,-12 0.50416,0 1.11342,0.5625 1.3539,1.25 0.3158,0.90284 1.02208,0.73105 2.54304,-0.61852 1.45278,-1.28908 2.89356,-1.67081 4.6461,-1.23095 3.77117,0.94651 3.0788,2.56112 -0.8265,1.92737 -5.24083,-0.85047 -6.63321,1.9612 -6.63321,13.39461 0,5.51833 -0.40519,9.27749 -1,9.27749 -0.61111,0 -1,-4.66667 -1,-12 z m -348.26223,-11.75 c 0.50993,-1.33852 3.10303,-1.63206 5.68044,-0.64301 2.78559,1.06893 1.69828,1.99192 -2.28743,1.94173 -2.66865,-0.0336 -3.72146,-0.43658 -3.39301,-1.29872 z m 40.51743,-59.36743 c -5.10563,-1.47444 -6.84594,-5.41259 -6.406,-14.49621 0.0912,-1.88281 1.19296,-4.15579 2.78716,-5.75 l 2.63637,-2.63636 17.91329,0 c 13.90844,0 18.55706,-0.3329 20.79277,-1.48903 2.99902,-1.55086 4.83825,-5.11534 3.37055,-6.53223 -0.46714,-0.45096 -9.84934,-0.96817 -20.84934,-1.14934 l -20,-0.3294 -6.22907,-3.37817 c -6.68906,-3.62763 -10.1198,-7.38768 -13.58453,-14.88849 -2.08667,-4.51743 -2.1864,-6.03337 -2.1864,-33.23334 l 0,-28.5 2.59016,-5.5 c 3.62161,-7.69018 6.83692,-11.135 13.57881,-14.54806 l 5.83103,-2.95194 29.772,-0.30492 29.77201,-0.30492 2.89234,2.89234 c 1.93383,1.93383 3.10808,4.35467 3.54332,7.30492 0.35804,2.42692 0.49164,25.78758 0.29688,51.91258 -0.31785,42.63629 -0.54028,48.06317 -2.17225,53 -4.11578,12.45052 -12.25051,18.9824 -26.1043,20.96076 -8.67857,1.23933 -33.86083,1.18784 -38.2448,-0.0782 z m 41.7448,-83.88257 0,-28 -16.6,0 -16.6,0 -3.4,3.4 -3.4,3.4 0,20.96514 c 0,19.90238 0.10839,21.10293 2.13812,23.68332 1.17596,1.495 3.08846,3.10216 4.25,3.57147 1.16153,0.46931 9.19938,0.88182 17.86188,0.91668 l 15.75,0.0634 0,-28 z m -192.12118,52.08369 c -12.21039,-1.33321 -21.49475,-7.70563 -26.27316,-18.03288 -1.94009,-4.19297 -2.13106,-6.61019 -2.42875,-30.74122 -0.26122,-21.17545 -0.0266,-27.34763 1.2252,-32.23396 2.62337,-10.24 7.84298,-16.22383 18.09789,-20.74763 3.27898,-1.44648 7.65013,-1.83135 24.25,-2.13515 l 20.25,-0.37062 0,-11.44323 c 0,-17.03995 2.12092,-20.60877 12.20119,-20.53069 5.65299,0.0438 9.43088,2.05375 10.84344,5.76909 0.5692,1.49711 0.95537,27.13674 0.95537,63.43192 l 0,60.91913 -2.91709,3.26577 -2.91709,3.26578 -23.33291,0.15332 c -12.8331,0.0843 -26.31244,-0.17201 -29.95409,-0.56963 z m 35.12118,-52.08369 0,-28 -16.04966,0 c -17.02909,0 -20.70443,0.80348 -22.9608,5.01955 -1.4061,2.62732 -2.48314,29.56762 -1.53542,38.40574 0.61263,5.71315 1.23702,7.4197 3.56732,9.75 l 2.82471,2.82471 17.07693,0 17.07692,0 0,-28 z m 258.25616,51.98562 c -8.2538,-1.85872 -8.41035,-2.70871 -8.02291,-43.56099 0.28294,-29.83326 0.58309,-35.67582 2.05888,-40.07747 2.29894,-6.85677 9.19809,-14.41987 15.92844,-17.46136 5.09153,-2.30089 6.27137,-2.39724 33.14966,-2.70732 20.17067,-0.23269 28.67681,0.0126 30.78983,0.88782 5.99257,2.4822 5.83994,1.14558 5.83994,51.14043 l 0,45.76172 -2.75842,3.0872 c -2.46492,2.75873 -3.35859,3.08721 -8.39919,3.08721 -10.42256,0 -12.08568,-2.48655 -12.80361,-19.14286 l -0.53878,-12.5 -19.5,0 -19.5,0 -0.52954,12.5 c -0.29125,6.875 -0.89153,13.2605 -1.33397,14.19001 -1.8403,3.86626 -8.55847,6.10666 -14.38033,4.79561 z m 55.74384,-68.05147 0,-12.06585 -16.97989,0.31585 -16.9799,0.31585 -2.7701,2.77166 c -2.54462,2.54604 -2.79856,3.50249 -3.11961,11.75 l -0.3495,8.97834 20.0995,0 20.0995,0 0,-12.06585 z m 49.01582,68.00231 c -1.91631,-0.42881 -4.50381,-1.96503 -5.75,-3.41382 -2.26038,-2.62784 -2.26582,-2.7176 -2.26582,-37.3683 0,-38.78567 0.51647,-42.94609 6.34117,-51.08102 2.36175,-3.2985 5.18034,-5.54895 10.11142,-8.07332 l 6.83687,-3.5 24.76933,-0.31269 24.76933,-0.31269 3.33594,2.97816 3.33594,2.97816 0.33273,13.83453 c 0.38272,15.91285 -0.49168,20.11114 -4.70731,22.60137 -5.9537,3.51694 -15.59355,1.39066 -18.04021,-3.97916 -0.59686,-1.30998 -1.08521,-5.09637 -1.08521,-8.4142 l 0,-6.03242 -13.08451,0.32947 -13.08451,0.32947 -2.91549,3.26578 -2.91549,3.26577 -0.006,31.23423 c -0.003,18.00513 -0.43464,32.77897 -1.01861,34.88141 -1.58528,5.70737 -7.5988,8.43648 -14.95999,6.78927 z m 117.33647,0.009 c -13.87248,-1.80883 -23.27548,-9.17826 -26.91295,-21.09302 -1.80233,-5.90366 -1.93934,-9.69627 -1.93934,-53.68399 l 0,-47.33154 3.26578,-2.91846 c 2.77877,-2.48324 4.09507,-2.91845 8.82692,-2.91845 4.8132,0 5.95429,0.39314 8.48422,2.92308 1.972,1.97199 2.95953,4.00556 3.03512,6.25 0.0616,1.8298 0.17412,5.80192 0.25,8.82692 l 0.13796,5.5 13.17389,0.5 c 12.10573,0.45946 13.37713,0.69128 15.68053,2.85905 3.15337,2.9677 4.13872,8.47406 2.44479,13.66195 -1.99716,6.11655 -5.64101,7.47554 -20.04921,7.47745 l -11.75,0.002 0.0844,19.75 c 0.14922,34.92576 0.27407,35.21176 15.84089,36.29131 6.5716,0.45574 10.87906,1.25569 12.50778,2.32287 3.10482,2.03435 5.05252,8.23396 4.13064,13.14799 -1.59073,8.47937 -9.07107,10.79753 -27.2114,8.43283 z m -424.04653,-2.35746 -2.80576,-2.41246 -0.5,-37.2746 -0.5,-37.2746 -3.5,-0.89444 c -7.70246,-1.96839 -11.0455,-9.88682 -7.35609,-17.42387 2.6217,-5.35583 5.17573,-6.27575 17.47123,-6.29283 9.2069,-0.0128 10.9615,0.2577 13.22593,2.03891 4.56299,3.58924 4.80339,6.42759 4.47032,52.77924 l -0.31139,43.3329 -3.26578,2.9171 c -2.75794,2.4635 -4.10991,2.91711 -8.69423,2.91711 -4.29581,0 -6.01389,-0.50336 -8.23423,-2.41246 z m 157,0 -2.80576,-2.41246 -0.5,-37.23757 -0.5,-37.23757 -4,-1.35819 c -5.58098,-1.89547 -7.5,-4.55791 -7.5,-10.40594 0,-10.63432 3.28035,-12.93627 18.43456,-12.93627 10.22472,0 10.62974,0.0856 13.79966,2.91705 l 3.26578,2.91704 0.31332,41.33296 c 0.35803,47.23175 0.13951,50.60739 -3.51244,54.25935 -2.17398,2.17397 -3.47546,2.5736 -8.38148,2.5736 -4.69684,0 -6.34461,-0.4615 -8.61364,-2.41246 z m 4.9504,-110.63588 c -7.95645,-1.70847 -11.72902,-10.6804 -7.30982,-17.38423 2.54508,-3.86083 5.6587,-5.48869 10.58115,-5.53199 8.70524,-0.0766 14.10307,8.97694 10.03845,16.83705 -2.64803,5.12073 -7.4849,7.32994 -13.30978,6.07917 z M 206.57394,480.5872 c -2.80841,-1.96709 -5.21679,-6.55566 -5.21679,-9.9393 0,-3.38364 2.40838,-7.97221 5.21679,-9.9393 2.79956,-1.96088 9.00959,-2.01211 12.69802,-0.10475 3.04632,1.57531 6.08745,6.92362 6.08145,10.69518 -0.005,3.37562 -3.56721,8.73525 -6.56182,9.8738 -3.83594,1.45842 -9.7007,1.1773 -12.21765,-0.58563 z m 81.28321,-63.84832 c -10.56615,-2.61815 -17.53535,-8.11014 -21.68803,-17.09098 -2.24492,-4.85499 -2.31197,-5.82655 -2.31197,-33.5 l 0,-28.5 3.374,-6.83355 c 6.47059,-13.10528 14.70047,-16.4259 41.18869,-16.61896 9.57922,-0.0698 17.72455,-0.44657 18.10073,-0.83722 0.37619,-0.39065 0.83081,-6.19453 1.01028,-12.89752 0.31688,-11.8355 0.4085,-12.27297 3.1744,-15.15711 3.52401,-3.67467 8.36743,-4.71917 12.96853,-2.7967 7.04069,2.94179 6.68337,-0.63571 6.68337,66.91323 0,68.04376 0.23016,65.73676 -6.7516,67.67569 -5.35637,1.48754 -49.44382,1.20531 -55.7484,-0.35688 z m 39.26582,-50.84098 0.26582,-27.75 -17.09274,0 -17.09275,0 -2.83742,2.83742 c -3.72103,3.72103 -4.26306,7.77782 -3.84585,28.7838 0.48408,24.37267 0.44721,24.33768 25.33712,24.05134 l 15,-0.17256 0.26582,-27.75 z m -114.1272,42.92738 c -6.02083,-8.11783 -14.35688,-26.0968 -17.07872,-36.83492 -6.10959,-24.10337 -4.28399,-53.07774 4.58555,-72.77809 1.5936,-3.5396 2.77531,-6.73445 2.62601,-7.09966 -0.39869,-0.97525 -72.21277,17.0684 -75.71115,19.02281 -0.79184,0.44237 -2.89741,5.36611 -4.67906,10.94166 l -3.23936,10.13735 2.05134,4.6374 c 1.63749,3.7018 1.91967,5.76304 1.39869,10.21674 -0.35896,3.06863 -0.64868,10.75433 -0.64381,17.07933 0.0109,14.17775 -1.76323,20.32655 -6.84599,23.72686 -4.96234,3.31974 -10.46143,3.06768 -14.17905,-0.64994 -4.18341,-4.18341 -3.88392,-8.58662 1.57693,-23.18496 2.475,-6.61635 4.5,-12.87658 4.5,-13.91162 0,-4.41075 2.34079,-12.20336 4.7175,-15.70484 2.05351,-3.02531 7.69852,-20.17245 6.90693,-20.98029 -0.19678,-0.20081 -2.44989,0.37898 -25.55813,6.57694 -12.6523,3.39353 -12.89942,2.59485 -1.0663,-3.44635 4.125,-2.10595 12.9,-6.82757 19.5,-10.49248 6.6,-3.66492 18.75,-10.38853 27,-14.94136 8.25,-4.55282 24.9,-13.90688 37,-20.78678 12.1,-6.87991 24.025,-13.63845 26.5,-15.01898 2.475,-1.38053 16.425,-9.67937 31,-18.44186 l 26.5,-15.93181 19.5,-4.98745 c 43.41211,-11.10337 99.56274,-23.58367 141,-31.3393 10.175,-1.90442 22.0312,-4.16737 26.34711,-5.0288 4.31592,-0.86142 8.59092,-1.41948 9.5,-1.24012 0.92153,0.1818 -2.9931,2.81214 -8.84711,5.94459 -16.82082,9.00074 -15.88648,8.48849 -63.5,34.81389 -16.80651,9.29228 -30.5,17.40212 -30.5,18.06333 0,0.30775 1.56412,1.12515 3.47582,1.81643 6.15171,2.22448 20.78334,12.55922 29.58844,20.89916 5.11024,4.84027 11.33335,12.16641 15.43024,18.16521 7.59054,11.11431 8.3402,14.61252 1.12088,5.23047 -11.47806,-14.9166 -32.98493,-29.57958 -52.50443,-35.79653 -4.06398,-1.29438 -8.49958,-2.35341 -9.85689,-2.35341 -2.18692,0 -26.04282,13.5292 -50.25406,28.50017 -7.83706,4.84603 -9.12394,5.30825 -16.5,5.92648 -8.81003,0.73841 -38.709,5.08547 -44.95035,6.53539 -4.29639,0.9981 -5.46586,2.24109 -11.35985,12.07408 -5.46748,9.12142 -11.06202,23.5905 -13.2837,34.3554 -2.33031,11.29126 -2.52816,31.77932 -0.42345,43.84867 1.75585,10.06878 6.50431,24.14074 10.66682,31.61088 1.63994,2.9431 2.83488,5.49792 2.65541,5.67738 -0.17947,0.17947 -2.05429,-2.00351 -4.16626,-4.85107 z"
       id="path4149"
       inkscape:connector-curvature="0" />
  </g>
</svg>
