<?xml version="1.0" encoding="UTF-8" standalone="no"?>
<svg
   xmlns:dc="http://purl.org/dc/elements/1.1/"
   xmlns:cc="http://creativecommons.org/ns#"
   xmlns:rdf="http://www.w3.org/1999/02/22-rdf-syntax-ns#"
   xmlns:svg="http://www.w3.org/2000/svg"
   xmlns="http://www.w3.org/2000/svg"
   xmlns:sodipodi="http://sodipodi.sourceforge.net/DTD/sodipodi-0.dtd"
   xmlns:inkscape="http://www.inkscape.org/namespaces/inkscape"
   class="tw-logo"
   viewBox="0 0 649.70003 122.6"
   id="svg2"
   version="1.1"
   inkscape:version="0.91 r"
   sodipodi:docname="treinaweb.svg"
   width="649.70001"
   height="122.6">
  <metadata
     id="metadata34">
    <rdf:RDF>
      <cc:Work
         rdf:about="">
        <dc:format>image/svg+xml</dc:format>
        <dc:type
           rdf:resource="http://purl.org/dc/dcmitype/StillImage" />
        <dc:title></dc:title>
      </cc:Work>
    </rdf:RDF>
  </metadata>
  <defs
     id="defs32" />
  <sodipodi:namedview
     pagecolor="#ffffff"
     bordercolor="#666666"
     borderopacity="1"
     objecttolerance="10"
     gridtolerance="10"
     guidetolerance="10"
     inkscape:pageopacity="0"
     inkscape:pageshadow="2"
     inkscape:window-width="1366"
     inkscape:window-height="704"
     id="namedview30"
     showgrid="false"
     fit-margin-top="0"
     fit-margin-left="0"
     fit-margin-right="0"
     fit-margin-bottom="0"
     inkscape:zoom="0.52478489"
     inkscape:cx="82.418819"
     inkscape:cy="61.399998"
     inkscape:window-x="0"
     inkscape:window-y="27"
     inkscape:window-maximized="1"
     inkscape:current-layer="svg2" />
  <path
     d="M 7.6,91.4 7.6,49 0,49 0,36.8 l 7.6,0 0,-15.4 15.4,0 0,15.4 17.2,0 0,12.2 -17.2,0 0,42.4 -15.4,0 z m 39.8,0 0,-31.6 c 0,-16.3 7.2,-23 25.6,-23 l 9.8,0 0,12.2 -9.4,0 c -8.4,0 -11,2.2 -11,10.9 l 0,31.5 -15,0 z"
     id="path4"
     inkscape:connector-curvature="0"
     style="fill:#23394a" />
  <path
     d="m 176.9,33.7 c -3.7,0 -5.1,-1.4 -5.1,-4.6 l 0,-5.8 c 0,-3.2 1.4,-4.5 5.1,-4.5 l 4.9,0 c 3.8,0 5.2,1.3 5.2,4.5 l 0,5.8 c 0,3.2 -1.4,4.6 -5.2,4.6 l -4.9,0 z"
     id="path6"
     inkscape:connector-curvature="0"
     style="fill:#007aab" />
  <path
     d="m 171.7,38.3 15.3,0 0,53.2 -15.3,0 z m 82.6,53.1 0,-30.4 c 0,-9.1 -2.5,-11.3 -12.2,-11.3 l -16.3,0 c -9.5,0 -12.2,2.2 -12.2,11.3 l 0,30.4 -15,0 0,-30.9 c 0,-17.4 6,-23.7 26.2,-23.7 l 18.2,0 c 20.3,0 26.3,6.2 26.3,23.7 l 0,30.9 -15,0 z m 45.2,0 c -15.7,0 -19.9,-5.5 -19.9,-14.4 l 0,-5.1 c 0,-9.2 3.8,-14.4 18.9,-14.4 l 40.4,0 0,-1.2 c 0,-6.9 -2.6,-8.8 -9.3,-8.8 l -14.9,0 0,-10.7 14.9,0 c 17.4,0 24.3,6.2 24.3,20.2 l 0,13.3 c 0,15.8 -5.5,21.2 -24.9,21.2 l -29.5,0 0,-0.1 z m 39.4,-24.7 -38.8,0 c -3.5,0 -5.6,1.2 -5.6,5.5 l 0,3.7 c 0,3.8 2.3,5.1 6.1,5.1 l 28.2,0 c 7,0 10.1,-1.6 10.1,-9.8 l 0,-4.5 z"
     id="path8"
     inkscape:connector-curvature="0"
     style="fill:#23394a" />
  <path
     d="m 412.4,53.9 -16.2,33.6 c -1.6,3.3 -4.4,5.4 -8.4,5.4 -4.5,0 -6.6,-2.1 -8.1,-5.4 l -21.8,-50.7 15.2,0 15.7,36.8 15.6,-32.6 c 1.8,-3.6 3.8,-5.6 8.3,-5.6 4.2,0 6.4,1.8 8.2,5.6 l 14.8,32.6 16.4,-36.8 14.9,0 -22.9,50.7 c -1.4,3.1 -4.2,5.4 -8.3,5.4 -3.9,0 -6.6,-2.3 -8.1,-5.4 L 412.4,53.9 Z m 73,15.8 0,2.5 c 0,6.6 2,7.9 9.1,7.9 l 17.7,0 0,11.4 -17.7,0 c -17.3,0 -24.1,-6.3 -24.1,-20.8 l 0,-12.6 c 0,-15.9 5.5,-21.3 24.8,-21.3 l 26.4,0 c 15.6,0 19.9,6.2 19.9,14.9 l 0,17.9 -56.1,0.1 z M 526.5,53 c 0,-3.6 -1.6,-4.5 -6.1,-4.5 l -25,0 c -7.6,0 -10,0.8 -10,8.7 l 0,2.9 41.1,0 0,-7.1 z"
     id="path10"
     inkscape:connector-curvature="0"
     style="fill:#007aab" />
  <path
     d="m 160.8,69.7 0,-18 c 0,-8.7 -4.3,-14.9 -20,-14.9 l -26.4,0 c -19.2,0 -24.8,5.3 -24.8,21.3 l 0,12.6 c 0,14.5 6.8,20.8 24.1,20.8 l 47,0 0,-11.4 -47,0 c -7.1,0 -9.1,-1.2 -9.1,-7.9 l 0,-2.5 56.2,0 z M 104.7,57.1 c 0,-7.9 2.4,-8.7 10,-8.7 l 25,0 c 4.5,0 6.1,0.9 6.1,4.5 l 0,7 -41.1,0 0,-2.8 z m 415.1,23 21.7,0 0,11.4 -21.7,0 z"
     id="path12"
     inkscape:connector-curvature="0"
     style="fill:#23394a" />
  <path
     d="m 635.5,0 -79.5,0 15.1,14.2 64.4,0 0,94 -93.1,0 -10.8,14.3 118.1,0 0,-122.5 z"
     id="path14"
     inkscape:connector-curvature="0"
     style="fill:#007aab" />
  <path
     d="m 578.3,91.4 19.1,0 c 20.3,0 26.3,-6.3 26.3,-23.6 l 0,-7.4 c 0,-17.4 -5.9,-23.7 -26.3,-23.7 l -30.3,0 0,-19.2 -15,-14.1 0,64.5 c 0,17.3 5.9,23.5 26.2,23.5 z m 18.6,-41.7 c 9.5,0 11.8,1.8 11.8,11.3 l 0,6.5 c 0,9.1 -2.3,11.3 -11.8,11.3 l -18.1,0 c -9.5,0 -11.7,-2.2 -11.7,-11.2 l 0,-0.4 22.7,0 0,-8.1 -22.7,0 0,-9.3 29.8,0 0,-0.1 z m -265.1,72.8 c -4.1,0 -5.4,-1.3 -5.4,-4.8 l 0,-4.4 c 0,-3.6 1.2,-4.8 5.4,-4.8 l 9.8,0 0,2.7 -9.6,0 c -1.9,0 -2.4,0.6 -2.4,2.3 l 0,4.1 c 0,1.8 0.5,2.3 2.4,2.3 l 9.6,0 0,2.7 -9.8,-0.1 z m 33.5,0 c -4.1,0 -5.4,-1.3 -5.4,-4.8 l 0,-9.2 3.2,0 0,9.1 c 0,1.7 0.6,2.3 2.5,2.3 l 4.7,0 c 1.9,0 2.5,-0.5 2.5,-2.3 l 0,-9.1 3.1,0 0,9.2 c 0,3.6 -1.2,4.8 -5.4,4.8 l -5.2,0 z m 40.8,0 -8.2,-5.1 0,5.1 -3.1,0 0,-14.1 11,0 c 3.9,0 5.6,0.8 5.6,4.2 l 0,1 c 0,3.3 -1.8,4.1 -5.6,4.1 l -2.5,0 8.3,4.8 -5.5,0 z m 2,-9.7 c 0,-1.5 -0.5,-1.8 -2.6,-1.8 l -7.7,0 0,4.3 7.7,0 c 2,0 2.6,-0.2 2.6,-1.8 l 0,-0.7 z m 21.4,9.7 0,-2.7 10.7,0 c 1.1,0 1.6,-0.2 1.6,-1.2 l 0,-0.8 c 0,-0.9 -0.5,-1.2 -1.6,-1.2 l -6.7,0 c -3.2,0 -4,-1.2 -4,-3.6 l 0,-0.7 c 0,-2.9 1.2,-4 4,-4 l 4.4,0 0,2.7 -4.1,0 c -0.9,0 -1.4,0.3 -1.4,1.4 l 0,0.5 c 0,0.9 0.4,1.2 1.4,1.2 l 6.6,0 c 3.1,0 4.3,1 4.3,3.6 l 0,1.1 c 0,2.6 -1.1,3.7 -4.3,3.7 l -10.9,0 z m 38.8,0 c -4.2,0 -5.4,-1.3 -5.4,-4.8 l 0,-4.4 c 0,-3.6 1.2,-4.8 5.4,-4.8 l 5.3,0 c 4.2,0 5.4,1.3 5.4,4.8 l 0,4.4 c 0,3.6 -1.2,4.8 -5.4,4.8 l -5.3,0 z m 7.6,-9.1 c 0,-1.8 -0.5,-2.3 -2.4,-2.3 l -5.1,0 c -2,0 -2.4,0.5 -2.4,2.3 l 0,4.1 c 0,1.8 0.4,2.3 2.4,2.3 l 5.1,0 c 1.8,0 2.4,-0.4 2.4,-2.3 l 0,-4.1 z m 21.5,9.1 0,-2.7 10.6,0 c 1.1,0 1.6,-0.2 1.6,-1.2 l 0,-0.8 c 0,-0.9 -0.5,-1.2 -1.6,-1.2 l -6.7,0 c -3.2,0 -4,-1.2 -4,-3.6 l 0,-0.7 c 0,-2.9 1.2,-4 4,-4 l 4.4,0 0,2.7 -4.1,0 c -0.9,0 -1.4,0.3 -1.4,1.4 l 0,0.5 c 0,0.9 0.4,1.2 1.4,1.2 l 6.6,0 c 3.1,0 4.3,1 4.3,3.6 l 0,1.1 c 0,2.6 -1.2,3.7 -4.3,3.7 l -10.8,0 z"
     id="path16"
     inkscape:connector-curvature="0"
     style="fill:#23394a" />
</svg>
